            <?xml version="1.0" encoding="UTF-8" standalone="no"?>
<svg
   version="1.1"
   viewBox="0 0 1288.24 882.49"
   id="svg187"
   sodipodi:docname="pinacoteca (1).svg"
   inkscape:version="1.4.3 (0d15f75, 2025-12-25)"
   xmlns:inkscape="http://www.inkscape.org/namespaces/inkscape"
   xmlns:sodipodi="http://sodipodi.sourceforge.net/DTD/sodipodi-0.dtd"
   xmlns="http://www.w3.org/2000/svg"
   xmlns:svg="http://www.w3.org/2000/svg">
  <sodipodi:namedview
     id="namedview187"
     pagecolor="#ffffff"
     bordercolor="#000000"
     borderopacity="0.25"
     inkscape:showpageshadow="2"
     inkscape:pageopacity="0.0"
     inkscape:pagecheckerboard="0"
     inkscape:deskcolor="#d1d1d1"
     showgrid="false"
     inkscape:zoom="0.9427869"
     inkscape:cx="857.56389"
     inkscape:cy="486.32411"
     inkscape:window-width="1512"
     inkscape:window-height="868"
     inkscape:window-x="0"
     inkscape:window-y="33"
     inkscape:window-maximized="1"
     inkscape:current-layer="Mappa_Outline" />
  <defs
     id="defs1">
    <style
       id="style1">
            .cls-1 {
            stroke-dasharray: 3 3;
            }

            .cls-1, .cls-2, .cls-3, .cls-4, .cls-5, .cls-6, .cls-7, .cls-8, .cls-9, .cls-10, .cls-11, .cls-12, .cls-13 {
            fill: none;
            stroke-miterlimit: 10;
            }

            .cls-1, .cls-2, .cls-3, .cls-4, .cls-5, .cls-6, .cls-7, .cls-8, .cls-9, .cls-10, .cls-11, .cls-13 {
            stroke: #000;
            }

            .cls-2 {
            stroke-dasharray: 2.94 2.94;
            }

            .cls-3 {
            stroke-dasharray: 2.93 2.93;
            }

            .cls-4 {
            stroke-dasharray: 2.97 2.97;
            }

            .cls-14 {
            fill: #b1a76b;
            }

            .cls-5 {
            stroke-dasharray: 2.92 2.92;
            }

            .cls-15 {
            fill: #82bfa8;
            }

            .cls-16 {
            fill: #1d1d1b;
            }

            .cls-6 {
            stroke-dasharray: 2.82 2.82;
            }

            .cls-7 {
            stroke-dasharray: 2.75 2.75;
            }

            .cls-8 {
            stroke-dasharray: 2.75 2.75;
            }

            .cls-9 {
            stroke-dasharray: 2.67 2.67;
            }

            .cls-10 {
            stroke-dasharray: 2.74 2.74;
            }

            .cls-11 {
            stroke-dasharray: 2.76 2.76;
            }

            .cls-12 {
            stroke: #1d1d1b;
            stroke-width: 2px;
            }

            .cls-17 {
            fill: #83b2d9;
            }

            .cls-18 {
            fill: #e0d2a0;
            }

            .cls-19 {
            fill: #81a47a;
            }

            .cls-20 {
            fill: #b1a76b;
            }
        </style>
  </defs>
  <!-- Generator: Adobe Illustrator 28.7.1, SVG Export Plug-In . SVG Version: 1.2.0 Build 142)  -->
  <g
     id="g187">
    <g
       id="_30A"
       serif:id="30A"
       style="fill:#83b2d9;fill-opacity:1">
      <polygon
         class="cls-19"
         points="978.43 384.6 1041.43 449.56 994.56 454.75 931.58 389.8 978.43 384.6"
         id="polygon1"
         style="fill:#83b2d9;fill-opacity:1" />
      <g
         id="g3"
         style="fill:#000000;fill-opacity:1">
        <path
           class="cls-16"
           d="M878.14,410.73c-1.12,0-2.13-.19-3-.58-.88-.39-1.57-.92-2.09-1.62-.51-.69-.79-1.49-.84-2.41h2.15c.04.56.24,1.05.58,1.45s.79.72,1.34.94c.55.22,1.16.33,1.83.33.75,0,1.42-.13,1.99-.39.58-.26,1.03-.62,1.36-1.09.33-.47.5-1.01.5-1.62s-.16-1.21-.48-1.7c-.32-.49-.78-.88-1.4-1.15-.61-.28-1.36-.42-2.25-.42h-1.4v-1.88h1.4c.69,0,1.3-.12,1.83-.38.53-.25.94-.6,1.24-1.06s.45-.99.45-1.6-.13-1.1-.39-1.54c-.26-.44-.63-.78-1.1-1.02-.47-.24-1.03-.37-1.67-.37-.6,0-1.17.11-1.7.33-.53.22-.96.53-1.3.95-.34.41-.52.91-.55,1.49h-2.04c.03-.92.31-1.72.83-2.41s1.19-1.23,2.03-1.62c.84-.39,1.76-.58,2.77-.58,1.08,0,2,.22,2.78.65.77.43,1.37,1.01,1.78,1.72.41.71.62,1.48.62,2.3,0,.98-.26,1.82-.77,2.51-.51.69-1.21,1.17-2.09,1.44v.14c1.1.18,1.96.65,2.58,1.4.62.75.93,1.68.93,2.79,0,.95-.26,1.8-.77,2.55-.51.75-1.21,1.35-2.1,1.78s-1.9.65-3.03.65Z"
           id="path1"
           style="fill:#000000;fill-opacity:1" />
        <path
           class="cls-16"
           d="M893.21,410.73c-1.28,0-2.38-.35-3.28-1.05-.9-.7-1.59-1.72-2.07-3.06-.48-1.34-.72-2.96-.72-4.85s.24-3.5.72-4.84c.48-1.34,1.17-2.36,2.08-3.07.91-.71,2-1.06,3.27-1.06s2.36.35,3.27,1.06c.91.71,1.6,1.73,2.08,3.07.48,1.34.72,2.95.72,4.84s-.24,3.52-.72,4.85-1.17,2.36-2.07,3.06c-.9.7-2,1.05-3.28,1.05ZM893.21,408.85c1.27,0,2.26-.61,2.97-1.84.71-1.23,1.06-2.98,1.06-5.25,0-1.51-.16-2.8-.48-3.86-.32-1.06-.78-1.87-1.38-2.43-.6-.56-1.32-.83-2.16-.83-1.26,0-2.25.62-2.96,1.86s-1.07,3-1.07,5.26c0,1.51.16,2.8.48,3.85.32,1.06.78,1.86,1.38,2.41.6.55,1.32.83,2.17.83Z"
           id="path2"
           style="fill:#000000;fill-opacity:1" />
        <path
           class="cls-16"
           d="M903.54,410.49h-2.22l6.41-17.46h2.18l6.41,17.46h-2.22l-5.22-14.69h-.14l-5.22,14.69ZM904.36,403.67h8.93v1.88h-8.93v-1.88Z"
           id="path3"
           style="fill:#000000;fill-opacity:1" />
      </g>
      <g
         id="g5"
         style="fill:#83b2d9;fill-opacity:1">
        <line
           class="cls-13"
           x1="968.34"
           y1="401.6"
           x2="966.93"
           y2="401.75"
           id="line3"
           style="fill:#83b2d9;fill-opacity:1" />
        <line
           class="cls-1"
           x1="963.94"
           y1="402.07"
           x2="923.65"
           y2="406.43"
           id="line4"
           style="fill:#83b2d9;fill-opacity:1" />
        <line
           class="cls-13"
           x1="922.16"
           y1="406.6"
           x2="920.75"
           y2="406.75"
           id="line5"
           style="fill:#83b2d9;fill-opacity:1" />
      </g>
    </g>
    <g
       id="_30B"
       serif:id="30B"
       style="fill:#83b2d9;fill-opacity:1">
      <g
         id="g7"
         style="fill:#83b2d9;fill-opacity:1">
        <path
           class="cls-16"
           d="M848.09,378.58c-1.12,0-2.13-.19-3-.58-.88-.39-1.57-.92-2.09-1.62-.51-.69-.79-1.49-.84-2.41h2.15c.04.56.24,1.05.58,1.45s.79.72,1.34.94c.55.22,1.16.33,1.83.33.75,0,1.42-.13,1.99-.39.58-.26,1.03-.62,1.36-1.09.33-.47.5-1.01.5-1.62s-.16-1.21-.48-1.7c-.32-.49-.78-.88-1.4-1.15-.61-.28-1.36-.42-2.25-.42h-1.4v-1.88h1.4c.69,0,1.3-.12,1.83-.38.53-.25.94-.6,1.24-1.06s.45-.99.45-1.6-.13-1.1-.39-1.54c-.26-.44-.63-.78-1.1-1.02-.47-.24-1.03-.37-1.67-.37-.6,0-1.17.11-1.7.33-.53.22-.96.53-1.3.95-.34.41-.52.91-.55,1.49h-2.04c.03-.92.31-1.72.83-2.41s1.19-1.23,2.03-1.62c.84-.39,1.76-.58,2.77-.58,1.08,0,2,.22,2.78.65.77.43,1.37,1.01,1.78,1.72.41.71.62,1.48.62,2.3,0,.98-.26,1.82-.77,2.51-.51.69-1.21,1.17-2.09,1.44v.14c1.1.18,1.96.65,2.58,1.4.62.75.93,1.68.93,2.79,0,.95-.26,1.8-.77,2.55-.51.75-1.21,1.35-2.1,1.78s-1.9.65-3.03.65Z"
           id="path5"
           style="fill:#83b2d9;fill-opacity:1" />
        <path
           class="cls-16"
           d="M863.16,378.58c-1.28,0-2.38-.35-3.28-1.05-.9-.7-1.59-1.72-2.07-3.06-.48-1.34-.72-2.96-.72-4.85s.24-3.5.72-4.84c.48-1.34,1.17-2.36,2.08-3.07.91-.71,2-1.06,3.27-1.06s2.36.35,3.27,1.06c.91.71,1.6,1.73,2.08,3.07.48,1.34.72,2.95.72,4.84s-.24,3.52-.72,4.85-1.17,2.36-2.07,3.06c-.9.7-2,1.05-3.28,1.05ZM863.16,376.71c1.27,0,2.26-.61,2.97-1.84.71-1.23,1.06-2.98,1.06-5.25,0-1.51-.16-2.8-.48-3.86-.32-1.06-.78-1.87-1.38-2.43-.6-.56-1.32-.83-2.16-.83-1.26,0-2.25.62-2.96,1.86s-1.07,3-1.07,5.26c0,1.51.16,2.8.48,3.85.32,1.06.78,1.86,1.38,2.41.6.55,1.32.83,2.17.83Z"
           id="path6"
           style="fill:#83b2d9;fill-opacity:1" />
        <path
           class="cls-16"
           d="M872.77,378.35v-17.46h6.1c1.22,0,2.22.21,3.01.63.79.42,1.38.98,1.76,1.68.39.7.58,1.48.58,2.33,0,.75-.13,1.37-.4,1.86-.26.49-.61.88-1.04,1.16-.43.28-.89.5-1.39.63v.17c.53.03,1.07.22,1.61.56s.99.83,1.36,1.47c.36.64.54,1.42.54,2.33s-.2,1.66-.6,2.36c-.4.7-1.03,1.25-1.88,1.66-.86.41-1.97.61-3.35.61h-6.31ZM874.88,368.56h3.92c.64,0,1.21-.12,1.73-.38.51-.25.92-.6,1.23-1.06.3-.46.46-.99.46-1.6,0-.77-.27-1.42-.8-1.96s-1.38-.81-2.54-.81h-3.99v5.8ZM874.88,376.47h4.19c1.38,0,2.36-.27,2.94-.81s.87-1.19.87-1.96c0-.59-.15-1.14-.45-1.64s-.73-.91-1.29-1.21-1.22-.46-1.98-.46h-4.3v6.07Z"
           id="path7"
           style="fill:#83b2d9;fill-opacity:1" />
      </g>
      <g
         id="g9"
         style="fill:#83b2d9;fill-opacity:1">
        <line
           class="cls-13"
           x1="938.29"
           y1="369.46"
           x2="936.88"
           y2="369.61"
           id="line7"
           style="fill:#83b2d9;fill-opacity:1" />
        <line
           class="cls-1"
           x1="933.89"
           y1="369.93"
           x2="893.6"
           y2="374.29"
           id="line8"
           style="fill:#83b2d9;fill-opacity:1" />
        <line
           class="cls-13"
           x1="892.11"
           y1="374.45"
           x2="890.7"
           y2="374.61"
           id="line9"
           style="fill:#83b2d9;fill-opacity:1" />
      </g>
      <g
         id="g12"
         style="fill:#83b2d9;fill-opacity:1">
        <line
           class="cls-13"
           x1="938.29"
           y1="369.46"
           x2="936.88"
           y2="369.61"
           id="line10"
           style="fill:#83b2d9;fill-opacity:1" />
        <line
           class="cls-1"
           x1="933.89"
           y1="369.93"
           x2="893.6"
           y2="374.29"
           id="line11"
           style="fill:#83b2d9;fill-opacity:1" />
        <line
           class="cls-13"
           x1="892.11"
           y1="374.45"
           x2="890.7"
           y2="374.61"
           id="line12"
           style="fill:#83b2d9;fill-opacity:1" />
      </g>
      <polygon
         class="cls-19"
         points="942.04 348.42 895.4 353.59 931.11 390.36 977.95 385.16 942.04 348.42"
         id="polygon12"
         style="fill:#83b2d9;fill-opacity:1" />
      <g
         id="g14"
         style="fill:#83b2d9;fill-opacity:1">
        <path
           class="cls-16"
           d="M848.09,378.58c-1.12,0-2.13-.19-3-.58-.88-.39-1.57-.92-2.09-1.62-.51-.69-.79-1.49-.84-2.41h2.15c.04.56.24,1.05.58,1.45s.79.72,1.34.94c.55.22,1.16.33,1.83.33.75,0,1.42-.13,1.99-.39.58-.26,1.03-.62,1.36-1.09.33-.47.5-1.01.5-1.62s-.16-1.21-.48-1.7c-.32-.49-.78-.88-1.4-1.15-.61-.28-1.36-.42-2.25-.42h-1.4v-1.88h1.4c.69,0,1.3-.12,1.83-.38.53-.25.94-.6,1.24-1.06s.45-.99.45-1.6-.13-1.1-.39-1.54c-.26-.44-.63-.78-1.1-1.02-.47-.24-1.03-.37-1.67-.37-.6,0-1.17.11-1.7.33-.53.22-.96.53-1.3.95-.34.41-.52.91-.55,1.49h-2.04c.03-.92.31-1.72.83-2.41s1.19-1.23,2.03-1.62c.84-.39,1.76-.58,2.77-.58,1.08,0,2,.22,2.78.65.77.43,1.37,1.01,1.78,1.72.41.71.62,1.48.62,2.3,0,.98-.26,1.82-.77,2.51-.51.69-1.21,1.17-2.09,1.44v.14c1.1.18,1.96.65,2.58,1.4.62.75.93,1.68.93,2.79,0,.95-.26,1.8-.77,2.55-.51.75-1.21,1.35-2.1,1.78s-1.9.65-3.03.65Z"
           id="path12"
           style="fill:#83b2d9;fill-opacity:1" />
        <path
           class="cls-16"
           d="M863.16,378.58c-1.28,0-2.38-.35-3.28-1.05-.9-.7-1.59-1.72-2.07-3.06-.48-1.34-.72-2.96-.72-4.85s.24-3.5.72-4.84c.48-1.34,1.17-2.36,2.08-3.07.91-.71,2-1.06,3.27-1.06s2.36.35,3.27,1.06c.91.71,1.6,1.73,2.08,3.07.48,1.34.72,2.95.72,4.84s-.24,3.52-.72,4.85-1.17,2.36-2.07,3.06c-.9.7-2,1.05-3.28,1.05ZM863.16,376.71c1.27,0,2.26-.61,2.97-1.84.71-1.23,1.06-2.98,1.06-5.25,0-1.51-.16-2.8-.48-3.86-.32-1.06-.78-1.87-1.38-2.43-.6-.56-1.32-.83-2.16-.83-1.26,0-2.25.62-2.96,1.86s-1.07,3-1.07,5.26c0,1.51.16,2.8.48,3.85.32,1.06.78,1.86,1.38,2.41.6.55,1.32.83,2.17.83Z"
           id="path13"
           style="fill:#83b2d9;fill-opacity:1" />
        <path
           class="cls-16"
           d="M872.77,378.35v-17.46h6.1c1.22,0,2.22.21,3.01.63.79.42,1.38.98,1.76,1.68.39.7.58,1.48.58,2.33,0,.75-.13,1.37-.4,1.86-.26.49-.61.88-1.04,1.16-.43.28-.89.5-1.39.63v.17c.53.03,1.07.22,1.61.56s.99.83,1.36,1.47c.36.64.54,1.42.54,2.33s-.2,1.66-.6,2.36c-.4.7-1.03,1.25-1.88,1.66-.86.41-1.97.61-3.35.61h-6.31ZM874.88,368.56h3.92c.64,0,1.21-.12,1.73-.38.51-.25.92-.6,1.23-1.06.3-.46.46-.99.46-1.6,0-.77-.27-1.42-.8-1.96s-1.38-.81-2.54-.81h-3.99v5.8ZM874.88,376.47h4.19c1.38,0,2.36-.27,2.94-.81s.87-1.19.87-1.96c0-.59-.15-1.14-.45-1.64s-.73-.91-1.29-1.21-1.22-.46-1.98-.46h-4.3v6.07Z"
           id="path14"
           style="fill:#83b2d9;fill-opacity:1" />
      </g>
      <g
         id="g16"
         style="fill:#83b2d9;fill-opacity:1">
        <line
           class="cls-13"
           x1="938.29"
           y1="369.46"
           x2="936.88"
           y2="369.61"
           id="line14"
           style="fill:#83b2d9;fill-opacity:1" />
        <line
           class="cls-1"
           x1="933.89"
           y1="369.93"
           x2="893.6"
           y2="374.29"
           id="line15"
           style="fill:#83b2d9;fill-opacity:1" />
        <line
           class="cls-13"
           x1="892.11"
           y1="374.45"
           x2="890.7"
           y2="374.61"
           id="line16"
           style="fill:#83b2d9;fill-opacity:1" />
      </g>
      <g
         id="g18"
         style="fill:#000000;fill-opacity:1">
        <path
           class="cls-16"
           d="M848.09,378.58c-1.12,0-2.13-.19-3-.58-.88-.39-1.57-.92-2.09-1.62-.51-.69-.79-1.49-.84-2.41h2.15c.04.56.24,1.05.58,1.45s.79.72,1.34.94c.55.22,1.16.33,1.83.33.75,0,1.42-.13,1.99-.39.58-.26,1.03-.62,1.36-1.09.33-.47.5-1.01.5-1.62s-.16-1.21-.48-1.7c-.32-.49-.78-.88-1.4-1.15-.61-.28-1.36-.42-2.25-.42h-1.4v-1.88h1.4c.69,0,1.3-.12,1.83-.38.53-.25.94-.6,1.24-1.06s.45-.99.45-1.6-.13-1.1-.39-1.54c-.26-.44-.63-.78-1.1-1.02-.47-.24-1.03-.37-1.67-.37-.6,0-1.17.11-1.7.33-.53.22-.96.53-1.3.95-.34.41-.52.91-.55,1.49h-2.04c.03-.92.31-1.72.83-2.41s1.19-1.23,2.03-1.62c.84-.39,1.76-.58,2.77-.58,1.08,0,2,.22,2.78.65.77.43,1.37,1.01,1.78,1.72.41.71.62,1.48.62,2.3,0,.98-.26,1.82-.77,2.51-.51.69-1.21,1.17-2.09,1.44v.14c1.1.18,1.96.65,2.58,1.4.62.75.93,1.68.93,2.79,0,.95-.26,1.8-.77,2.55-.51.75-1.21,1.35-2.1,1.78s-1.9.65-3.03.65Z"
           id="path16"
           style="fill:#000000;fill-opacity:1" />
        <path
           class="cls-16"
           d="M863.16,378.58c-1.28,0-2.38-.35-3.28-1.05-.9-.7-1.59-1.72-2.07-3.06-.48-1.34-.72-2.96-.72-4.85s.24-3.5.72-4.84c.48-1.34,1.17-2.36,2.08-3.07.91-.71,2-1.06,3.27-1.06s2.36.35,3.27,1.06c.91.71,1.6,1.73,2.08,3.07.48,1.34.72,2.95.72,4.84s-.24,3.52-.72,4.85-1.17,2.36-2.07,3.06c-.9.7-2,1.05-3.28,1.05ZM863.16,376.71c1.27,0,2.26-.61,2.97-1.84.71-1.23,1.06-2.98,1.06-5.25,0-1.51-.16-2.8-.48-3.86-.32-1.06-.78-1.87-1.38-2.43-.6-.56-1.32-.83-2.16-.83-1.26,0-2.25.62-2.96,1.86s-1.07,3-1.07,5.26c0,1.51.16,2.8.48,3.85.32,1.06.78,1.86,1.38,2.41.6.55,1.32.83,2.17.83Z"
           id="path17"
           style="fill:#000000;fill-opacity:1" />
        <path
           class="cls-16"
           d="M872.77,378.35v-17.46h6.1c1.22,0,2.22.21,3.01.63.79.42,1.38.98,1.76,1.68.39.7.58,1.48.58,2.33,0,.75-.13,1.37-.4,1.86-.26.49-.61.88-1.04,1.16-.43.28-.89.5-1.39.63v.17c.53.03,1.07.22,1.61.56s.99.83,1.36,1.47c.36.64.54,1.42.54,2.33s-.2,1.66-.6,2.36c-.4.7-1.03,1.25-1.88,1.66-.86.41-1.97.61-3.35.61h-6.31ZM874.88,368.56h3.92c.64,0,1.21-.12,1.73-.38.51-.25.92-.6,1.23-1.06.3-.46.46-.99.46-1.6,0-.77-.27-1.42-.8-1.96s-1.38-.81-2.54-.81h-3.99v5.8ZM874.88,376.47h4.19c1.38,0,2.36-.27,2.94-.81s.87-1.19.87-1.96c0-.59-.15-1.14-.45-1.64s-.73-.91-1.29-1.21-1.22-.46-1.98-.46h-4.3v6.07Z"
           id="path18"
           style="fill:#000000;fill-opacity:1" />
      </g>
    </g>
    <g
       id="_30C"
       serif:id="30C"
       style="fill:#83b2d9;fill-opacity:1">
      <g
         id="g20"
         style="fill:#83b2d9;fill-opacity:1">
        <line
           class="cls-13"
           x1="906.38"
           y1="337.54"
           x2="904.97"
           y2="337.7"
           id="line18"
           style="fill:#83b2d9;fill-opacity:1" />
        <line
           class="cls-1"
           x1="901.98"
           y1="338.02"
           x2="861.69"
           y2="342.38"
           id="line19"
           style="fill:#83b2d9;fill-opacity:1" />
        <line
           class="cls-13"
           x1="860.2"
           y1="342.54"
           x2="858.79"
           y2="342.69"
           id="line20"
           style="fill:#83b2d9;fill-opacity:1" />
      </g>
      <g
         id="g22"
         style="fill:#000000;fill-opacity:1">
        <path
           class="cls-16"
           d="M816.18,346.67c-1.12,0-2.13-.19-3-.58-.88-.39-1.57-.92-2.09-1.62-.51-.69-.79-1.49-.84-2.41h2.15c.04.56.24,1.05.58,1.45s.79.72,1.34.94c.55.22,1.16.33,1.83.33.75,0,1.42-.13,1.99-.39.58-.26,1.03-.62,1.36-1.09.33-.47.5-1.01.5-1.62s-.16-1.21-.48-1.7-.78-.88-1.4-1.16c-.61-.28-1.36-.42-2.25-.42h-1.4v-1.88h1.4c.69,0,1.3-.12,1.83-.38.53-.25.94-.6,1.24-1.06.3-.45.45-.99.45-1.6s-.13-1.11-.39-1.54c-.26-.44-.63-.78-1.1-1.02-.47-.24-1.03-.37-1.67-.37-.6,0-1.17.11-1.7.33-.53.22-.96.53-1.3.95-.34.41-.52.91-.55,1.49h-2.04c.03-.92.31-1.72.83-2.41s1.19-1.23,2.03-1.62c.84-.39,1.76-.58,2.77-.58,1.08,0,2,.22,2.78.65.77.43,1.37,1.01,1.78,1.72.41.71.62,1.48.62,2.3,0,.98-.26,1.82-.77,2.51-.51.69-1.21,1.17-2.09,1.44v.14c1.1.18,1.96.65,2.58,1.4.62.75.93,1.68.93,2.79,0,.95-.26,1.8-.77,2.55-.51.75-1.21,1.34-2.1,1.78s-1.9.65-3.03.65Z"
           id="path20"
           style="fill:#000000;fill-opacity:1" />
        <path
           class="cls-16"
           d="M831.25,346.67c-1.28,0-2.38-.35-3.28-1.05-.9-.7-1.59-1.72-2.07-3.06-.48-1.34-.72-2.96-.72-4.85s.24-3.5.72-4.84c.48-1.34,1.17-2.36,2.08-3.07s2-1.06,3.27-1.06,2.36.35,3.27,1.06,1.6,1.73,2.08,3.07c.48,1.34.72,2.95.72,4.84s-.24,3.52-.72,4.85-1.17,2.36-2.07,3.06c-.9.7-2,1.05-3.28,1.05ZM831.25,344.8c1.27,0,2.26-.61,2.97-1.84.71-1.23,1.06-2.98,1.06-5.25,0-1.51-.16-2.8-.48-3.86-.32-1.06-.78-1.87-1.38-2.43-.6-.56-1.32-.83-2.16-.83-1.26,0-2.25.62-2.96,1.86-.71,1.24-1.07,3-1.07,5.26,0,1.51.16,2.79.48,3.85.32,1.06.78,1.86,1.38,2.41s1.32.83,2.17.83Z"
           id="path21"
           style="fill:#000000;fill-opacity:1" />
        <path
           class="cls-16"
           d="M854.9,334.43h-2.11c-.12-.61-.34-1.14-.65-1.6-.31-.46-.68-.85-1.12-1.16s-.93-.55-1.46-.71c-.53-.16-1.09-.24-1.67-.24-1.06,0-2.01.27-2.87.8-.86.53-1.53,1.32-2.04,2.36s-.75,2.32-.75,3.83.25,2.79.75,3.83,1.18,1.83,2.04,2.36c.86.53,1.81.8,2.87.8.58,0,1.14-.08,1.67-.24.53-.16,1.02-.4,1.46-.71s.82-.71,1.12-1.17.53-1,.65-1.6h2.11c-.16.89-.45,1.69-.87,2.39-.42.71-.94,1.3-1.57,1.79-.62.49-1.33.87-2.1,1.12s-1.6.38-2.48.38c-1.49,0-2.81-.36-3.97-1.09-1.16-.73-2.07-1.76-2.74-3.1-.67-1.34-1-2.93-1-4.77s.33-3.43,1-4.77c.66-1.34,1.58-2.38,2.74-3.1,1.16-.73,2.48-1.09,3.97-1.09.88,0,1.71.13,2.48.38s1.48.63,2.1,1.12,1.15,1.09,1.57,1.79c.42.7.71,1.5.87,2.4Z"
           id="path22"
           style="fill:#000000;fill-opacity:1" />
      </g>
      <g
         id="g24"
         style="fill:#83b2d9;fill-opacity:1">
        <line
           class="cls-13"
           x1="906.38"
           y1="337.54"
           x2="904.97"
           y2="337.7"
           id="line22"
           style="fill:#83b2d9;fill-opacity:1" />
        <line
           class="cls-1"
           x1="901.98"
           y1="338.02"
           x2="861.69"
           y2="342.38"
           id="line23"
           style="fill:#83b2d9;fill-opacity:1" />
        <line
           class="cls-13"
           x1="860.2"
           y1="342.54"
           x2="858.79"
           y2="342.69"
           id="line24"
           style="fill:#83b2d9;fill-opacity:1" />
      </g>
      <polygon
         class="cls-19"
         points="914.05 319.51 867.42 324.68 895.5 353.71 942.34 348.51 914.05 319.51"
         id="polygon24"
         style="fill:#83b2d9;fill-opacity:1" />
      <g
         id="g27"
         style="fill:#83b2d9;fill-opacity:1">
        <line
           class="cls-13"
           x1="906.38"
           y1="337.54"
           x2="904.97"
           y2="337.7"
           id="line25"
           style="fill:#83b2d9;fill-opacity:1" />
        <line
           class="cls-1"
           x1="901.98"
           y1="338.02"
           x2="861.69"
           y2="342.38"
           id="line26"
           style="fill:#83b2d9;fill-opacity:1" />
        <line
           class="cls-13"
           x1="860.2"
           y1="342.54"
           x2="858.79"
           y2="342.69"
           id="line27"
           style="fill:#83b2d9;fill-opacity:1" />
      </g>
    </g>
    <g
       id="_30D"
       serif:id="30D"
       style="fill:#83b2d9;fill-opacity:1">
      <polygon
         class="cls-19"
         points="887.11 291.58 840.48 296.75 867.29 324.7 914.13 319.5 887.11 291.58"
         id="polygon27"
         style="fill:#83b2d9;fill-opacity:1" />
      <g
         id="g30"
         style="fill:#83b2d9;fill-opacity:1">
        <line
           class="cls-13"
           x1="877.83"
           y1="309"
           x2="876.42"
           y2="309.15"
           id="line28"
           style="fill:#83b2d9;fill-opacity:1" />
        <line
           class="cls-1"
           x1="873.44"
           y1="309.47"
           x2="833.14"
           y2="313.84"
           id="line29"
           style="fill:#83b2d9;fill-opacity:1" />
        <line
           class="cls-13"
           x1="831.65"
           y1="314"
           x2="830.24"
           y2="314.15"
           id="line30"
           style="fill:#83b2d9;fill-opacity:1" />
      </g>
      <g
         id="g32"
         style="fill:#000000;fill-opacity:1">
        <path
           class="cls-16"
           d="M787.63,318.13c-1.12,0-2.13-.19-3-.58-.88-.39-1.57-.92-2.09-1.62-.51-.69-.79-1.49-.84-2.41h2.15c.04.56.24,1.05.58,1.45s.79.72,1.34.94c.55.22,1.16.33,1.83.33.75,0,1.42-.13,1.99-.39.58-.26,1.03-.62,1.36-1.09.33-.47.5-1.01.5-1.62s-.16-1.21-.48-1.7c-.32-.49-.78-.88-1.4-1.15-.61-.28-1.36-.42-2.25-.42h-1.4v-1.88h1.4c.69,0,1.3-.12,1.83-.38.53-.25.94-.6,1.24-1.06s.45-.99.45-1.6-.13-1.1-.39-1.54c-.26-.44-.63-.78-1.1-1.02-.47-.24-1.03-.37-1.67-.37-.6,0-1.17.11-1.7.33-.53.22-.96.53-1.3.95-.34.41-.52.91-.55,1.49h-2.04c.03-.92.31-1.72.83-2.41s1.19-1.23,2.03-1.62c.84-.39,1.76-.58,2.77-.58,1.08,0,2,.22,2.78.65.77.43,1.37,1.01,1.78,1.72.41.71.62,1.48.62,2.3,0,.98-.26,1.82-.77,2.51-.51.69-1.21,1.17-2.09,1.44v.14c1.1.18,1.96.65,2.58,1.4.62.75.93,1.68.93,2.79,0,.95-.26,1.8-.77,2.55-.51.75-1.21,1.35-2.1,1.78s-1.9.65-3.03.65Z"
           id="path30"
           style="fill:#000000;fill-opacity:1" />
        <path
           class="cls-16"
           d="M802.7,318.13c-1.28,0-2.38-.35-3.28-1.05-.9-.7-1.59-1.72-2.07-3.06-.48-1.34-.72-2.96-.72-4.85s.24-3.5.72-4.84c.48-1.34,1.17-2.36,2.08-3.07.91-.71,2-1.06,3.27-1.06s2.36.35,3.27,1.06c.91.71,1.6,1.73,2.08,3.07.48,1.34.72,2.95.72,4.84s-.24,3.52-.72,4.85-1.17,2.36-2.07,3.06c-.9.7-2,1.05-3.28,1.05ZM802.7,316.25c1.27,0,2.26-.61,2.97-1.84.71-1.23,1.06-2.98,1.06-5.25,0-1.51-.16-2.8-.48-3.86-.32-1.06-.78-1.87-1.38-2.43-.6-.56-1.32-.83-2.16-.83-1.26,0-2.25.62-2.96,1.86s-1.07,3-1.07,5.26c0,1.51.16,2.8.48,3.85.32,1.06.78,1.86,1.38,2.41.6.55,1.32.83,2.17.83Z"
           id="path31"
           style="fill:#000000;fill-opacity:1" />
        <path
           class="cls-16"
           d="M817.7,317.89h-5.39v-17.46h5.62c1.69,0,3.14.35,4.35,1.04,1.2.7,2.13,1.69,2.77,2.99.64,1.3.96,2.85.96,4.66s-.32,3.38-.97,4.69c-.65,1.31-1.59,2.32-2.83,3.02-1.24.7-2.74,1.05-4.52,1.05ZM814.43,316.01h3.14c1.44,0,2.64-.28,3.59-.84.95-.56,1.66-1.35,2.12-2.38s.7-2.25.7-3.67-.23-2.62-.69-3.64c-.46-1.02-1.15-1.8-2.06-2.35-.92-.55-2.05-.82-3.42-.82h-3.38v13.71Z"
           id="path32"
           style="fill:#000000;fill-opacity:1" />
      </g>
    </g>
    <g
       id="_29"
       serif:id="29">
      <polygon
         class="cls-17"
         points="767.68 258.99 783.72 238.22 829.9 233.1 879.19 246.62 902.7 270.86 887.11 291.05 840.24 296.77 791.2 283.23 767.68 258.99"
         id="polygon32" />
      <g
         id="g44">
        <path
           class="cls-16"
           d="M695.21,254.84v-1.53l5.76-6.31c.68-.74,1.23-1.38,1.67-1.93.44-.55.76-1.06.98-1.55s.32-1,.32-1.53c0-.61-.15-1.15-.44-1.59-.29-.45-.69-.8-1.2-1.04-.51-.24-1.07-.37-1.71-.37-.67,0-1.25.14-1.75.41-.5.28-.88.66-1.15,1.15-.27.49-.4,1.07-.4,1.74h-2.01c0-1.02.24-1.92.71-2.69.47-.77,1.12-1.38,1.93-1.81s1.73-.65,2.75-.65,1.93.22,2.72.65c.79.43,1.41,1.01,1.86,1.75s.67,1.55.67,2.45c0,.64-.12,1.27-.35,1.88-.23.61-.63,1.29-1.19,2.04-.56.75-1.35,1.66-2.35,2.73l-3.92,4.19v.14h8.11v1.88h-11.01Z"
           id="path33" />
        <path
           class="cls-16"
           d="M715.29,237.15c.71,0,1.43.14,2.15.41.72.27,1.37.71,1.96,1.33.59.62,1.07,1.46,1.42,2.52.36,1.06.54,2.4.54,4s-.15,2.93-.44,4.13-.71,2.21-1.26,3.04-1.21,1.45-1.99,1.88c-.78.43-1.66.64-2.65.64s-1.85-.19-2.61-.58-1.39-.93-1.88-1.63c-.49-.7-.8-1.5-.93-2.42h2.08c.19.8.56,1.46,1.12,1.98.56.52,1.3.78,2.22.78,1.35,0,2.41-.59,3.19-1.76.78-1.18,1.17-2.84,1.17-4.99h-.14c-.32.48-.7.89-1.13,1.24s-.92.61-1.46.8c-.53.19-1.1.28-1.71.28-1,0-1.92-.25-2.75-.75s-1.5-1.18-1.99-2.05c-.5-.87-.75-1.87-.75-3s.24-2.05.72-2.94c.48-.89,1.16-1.6,2.03-2.13.87-.53,1.9-.78,3.08-.77ZM715.29,239.03c-.72,0-1.36.18-1.93.53-.57.36-1.02.83-1.35,1.43-.33.6-.5,1.26-.5,1.99s.16,1.39.48,1.98c.32.59.76,1.07,1.32,1.42.56.35,1.2.52,1.91.52.54,0,1.04-.11,1.51-.32.47-.21.87-.51,1.22-.88.35-.37.62-.8.82-1.27.2-.47.3-.97.3-1.49,0-.68-.16-1.32-.49-1.92-.33-.6-.78-1.08-1.35-1.45-.57-.37-1.22-.55-1.95-.55Z"
           id="path34" />
        <path
           class="cls-16"
           d="M665.43,271.64h-1.29l3.74-10.18h1.27l3.74,10.18h-1.29l-3.04-8.57h-.08l-3.04,8.57ZM665.91,267.67h5.21v1.09h-5.21v-1.09Z"
           id="path35" />
        <path
           class="cls-16"
           d="M681.16,261.46h1.23v6.74c0,.7-.16,1.32-.49,1.86-.33.55-.79.97-1.38,1.29-.59.31-1.29.47-2.09.47s-1.5-.16-2.09-.47c-.59-.31-1.05-.74-1.38-1.29-.33-.54-.49-1.17-.49-1.86v-6.74h1.23v6.64c0,.5.11.94.33,1.32s.53.69.94.91c.41.22.89.33,1.46.33s1.05-.11,1.46-.33c.41-.22.72-.52.94-.91s.33-.83.33-1.32v-6.64Z"
           id="path36" />
        <path
           class="cls-16"
           d="M688,271.64h-3.14v-10.18h3.28c.99,0,1.83.2,2.54.61.7.41,1.24.99,1.62,1.75s.56,1.66.56,2.72-.19,1.97-.57,2.74c-.38.76-.93,1.35-1.65,1.76-.72.41-1.6.61-2.63.61ZM686.1,270.55h1.83c.84,0,1.54-.16,2.09-.49.55-.32.97-.79,1.24-1.39.27-.6.41-1.31.41-2.14s-.13-1.53-.4-2.13c-.27-.59-.67-1.05-1.2-1.37s-1.2-.48-1.99-.48h-1.97v7.99Z"
           id="path37" />
        <path
           class="cls-16"
           d="M696.16,261.46v10.18h-1.23v-10.18h1.23Z"
           id="path38" />
        <path
           class="cls-16"
           d="M698.07,262.56v-1.09h7.64v1.09h-3.2v9.09h-1.23v-9.09h-3.2Z"
           id="path39" />
        <path
           class="cls-16"
           d="M716.2,266.55c0,1.07-.19,2-.58,2.78s-.92,1.39-1.6,1.81-1.45.64-2.32.64-1.64-.21-2.32-.64-1.21-1.03-1.6-1.81-.58-1.71-.58-2.78.19-2,.58-2.78.92-1.39,1.6-1.81,1.45-.64,2.32-.64,1.64.21,2.32.64,1.21,1.03,1.6,1.81.58,1.71.58,2.78ZM715.01,266.55c0-.88-.15-1.63-.44-2.23-.29-.61-.69-1.07-1.19-1.38-.5-.31-1.06-.47-1.67-.47s-1.17.16-1.67.47c-.5.31-.89.77-1.19,1.38s-.44,1.35-.44,2.23.15,1.63.44,2.23c.29.61.69,1.07,1.19,1.38.5.31,1.06.47,1.67.47s1.17-.16,1.67-.47c.5-.31.9-.77,1.19-1.38.29-.61.44-1.35.44-2.23Z"
           id="path40" />
        <path
           class="cls-16"
           d="M718.27,271.64v-10.18h3.44c.8,0,1.45.13,1.96.4.51.27.89.64,1.13,1.11s.37,1.01.37,1.61-.12,1.13-.37,1.6c-.25.46-.62.83-1.13,1.09-.51.26-1.16.4-1.94.4h-2.78v-1.11h2.74c.54,0,.98-.08,1.31-.24.33-.16.58-.39.73-.68.15-.29.23-.64.23-1.05s-.08-.76-.23-1.07c-.15-.31-.4-.54-.73-.71s-.78-.25-1.33-.25h-2.17v9.09h-1.23ZM723.06,267.07l2.51,4.57h-1.43l-2.47-4.57h1.39Z"
           id="path41" />
        <path
           class="cls-16"
           d="M728.45,261.46v10.18h-1.23v-10.18h1.23Z"
           id="path42" />
        <path
           class="cls-16"
           d="M737.6,261.46h1.23v6.74c0,.7-.16,1.32-.49,1.86-.33.55-.79.97-1.38,1.29-.59.31-1.29.47-2.09.47s-1.49-.16-2.09-.47c-.59-.31-1.05-.74-1.38-1.29-.33-.54-.49-1.17-.49-1.86v-6.74h1.23v6.64c0,.5.11.94.33,1.32s.53.69.94.91c.41.22.89.33,1.46.33s1.05-.11,1.46-.33c.41-.22.72-.52.94-.91.22-.39.33-.83.33-1.32v-6.64Z"
           id="path43" />
        <path
           class="cls-16"
           d="M741.3,261.46h1.47l3.46,8.45h.12l3.46-8.45h1.47v10.18h-1.15v-7.74h-.1l-3.18,7.74h-1.11l-3.18-7.74h-.1v7.74h-1.15v-10.18Z"
           id="path44" />
      </g>
      <g
         id="g46">
        <line
           class="cls-13"
           x1="835.19"
           y1="262.36"
           x2="833.78"
           y2="262.51"
           id="line44" />
        <line
           class="cls-10"
           x1="831.06"
           y1="262.79"
           x2="761.58"
           y2="270.05"
           id="line45" />
        <line
           class="cls-13"
           x1="760.21"
           y1="270.19"
           x2="758.8"
           y2="270.34"
           id="line46" />
      </g>
    </g>
    <g
       id="_28"
       serif:id="28"
       style="fill:#83b2d9;fill-opacity:1">
      <polygon
         class="cls-19"
         points="914.1 319.4 972.06 312.97 945.07 285.15 887.11 291.58 914.1 319.4"
         id="polygon46"
         style="fill:#83b2d9;fill-opacity:1" />
      <g
         id="g47"
         style="fill:#000000;fill-opacity:1">
        <path
           class="cls-16"
           d="M986.33,295.2v-1.53l5.76-6.31c.68-.74,1.23-1.38,1.67-1.93.44-.55.76-1.06.98-1.55.21-.49.32-1,.32-1.53,0-.61-.15-1.15-.44-1.59-.29-.45-.69-.8-1.2-1.04-.51-.24-1.07-.37-1.7-.37-.67,0-1.25.14-1.75.41-.5.28-.88.66-1.15,1.15-.27.49-.41,1.07-.41,1.74h-2.01c0-1.02.24-1.92.71-2.69.47-.77,1.12-1.38,1.93-1.81.82-.43,1.73-.65,2.75-.65s1.93.22,2.72.65,1.41,1.01,1.86,1.75c.45.73.67,1.55.67,2.45,0,.64-.11,1.27-.34,1.88-.23.61-.63,1.29-1.19,2.04-.57.75-1.35,1.66-2.35,2.73l-3.92,4.19v.14h8.11v1.88h-11.01Z"
           id="path46"
           style="fill:#000000;fill-opacity:1" />
        <path
           class="cls-16"
           d="M1006.44,295.44c-1.17,0-2.2-.21-3.1-.63-.9-.42-1.59-.99-2.09-1.73-.5-.74-.75-1.58-.74-2.52,0-.74.14-1.42.43-2.05.3-.63.7-1.15,1.21-1.58.51-.42,1.09-.69,1.73-.81v-.1c-.84-.22-1.5-.69-1.99-1.41-.5-.72-.74-1.55-.73-2.48,0-.89.22-1.68.67-2.38.46-.7,1.08-1.25,1.88-1.65.8-.4,1.71-.61,2.73-.61s1.91.2,2.71.61,1.42.95,1.88,1.65c.46.7.69,1.49.69,2.38,0,.93-.26,1.75-.75,2.48-.5.72-1.15,1.19-1.97,1.41v.1c.63.11,1.2.38,1.71.81.5.42.91.95,1.21,1.58.3.63.46,1.31.46,2.05,0,.94-.26,1.78-.76,2.52-.5.74-1.2,1.31-2.09,1.73-.89.42-1.92.63-3.08.63ZM1006.44,293.56c.79,0,1.47-.13,2.04-.38s1.02-.62,1.33-1.08.47-1.01.48-1.64c0-.66-.18-1.24-.51-1.75s-.79-.9-1.37-1.19-1.23-.43-1.97-.43-1.41.14-1.99.43-1.04.69-1.37,1.19c-.33.51-.5,1.09-.49,1.75,0,.62.15,1.17.46,1.64s.75.83,1.33,1.08c.58.26,1.27.38,2.06.38ZM1006.44,285.28c.62,0,1.18-.12,1.67-.38s.87-.6,1.15-1.05c.28-.45.42-.97.43-1.58,0-.59-.14-1.11-.42-1.55-.27-.44-.65-.78-1.13-1.02-.48-.24-1.05-.36-1.69-.36s-1.22.12-1.71.36c-.49.24-.87.58-1.13,1.02s-.4.96-.39,1.55c0,.6.13,1.13.4,1.58s.66.8,1.15,1.05,1.05.38,1.69.38Z"
           id="path47"
           style="fill:#000000;fill-opacity:1" />
      </g>
      <g
         id="g49"
         style="fill:#83b2d9;fill-opacity:1">
        <line
           class="cls-13"
           x1="977.59"
           y1="296.16"
           x2="976.18"
           y2="296.31"
           id="line47"
           style="fill:#83b2d9;fill-opacity:1" />
        <line
           class="cls-1"
           x1="973.2"
           y1="296.63"
           x2="932.9"
           y2="300.99"
           id="line48"
           style="fill:#83b2d9;fill-opacity:1" />
        <line
           class="cls-13"
           x1="931.41"
           y1="301.16"
           x2="930"
           y2="301.31"
           id="line49"
           style="fill:#83b2d9;fill-opacity:1" />
      </g>
    </g>
    <g
       id="_27"
       serif:id="27"
       style="fill:#83b2d9;fill-opacity:1">
      <polygon
         class="cls-19"
         points="972.06 312.97 1000.42 342.08 942.34 348.51 914.1 319.4 972.06 312.97"
         id="polygon49"
         style="fill:#83b2d9;fill-opacity:1" />
      <g
         id="g50"
         style="fill:#000000;fill-opacity:1">
        <path
           class="cls-16"
           d="M1013.69,323.47v-1.53l5.76-6.31c.68-.74,1.23-1.38,1.67-1.93.44-.55.76-1.06.98-1.55.21-.49.32-1,.32-1.53,0-.61-.15-1.15-.44-1.59-.29-.45-.69-.8-1.2-1.04s-1.07-.37-1.7-.37c-.67,0-1.25.14-1.75.41s-.88.66-1.15,1.15c-.27.5-.41,1.07-.41,1.74h-2.01c0-1.02.24-1.92.71-2.69s1.12-1.38,1.93-1.81,1.73-.65,2.75-.65,1.93.22,2.72.65c.79.43,1.41,1.01,1.86,1.75.45.73.67,1.55.67,2.45,0,.64-.11,1.27-.34,1.88s-.63,1.29-1.19,2.04-1.35,1.66-2.35,2.73l-3.92,4.19v.14h8.11v1.88h-11.01Z"
           id="path49"
           style="fill:#000000;fill-opacity:1" />
        <path
           class="cls-16"
           d="M1028.76,323.47l7.81-15.44v-.14h-9v-1.88h11.18v1.98l-7.77,15.48h-2.22Z"
           id="path50"
           style="fill:#000000;fill-opacity:1" />
      </g>
      <g
         id="g52"
         style="fill:#83b2d9;fill-opacity:1">
        <line
           class="cls-13"
           x1="1004.95"
           y1="324.43"
           x2="1003.54"
           y2="324.58"
           id="line50"
           style="fill:#83b2d9;fill-opacity:1" />
        <line
           class="cls-1"
           x1="1000.56"
           y1="324.9"
           x2="960.27"
           y2="329.26"
           id="line51"
           style="fill:#83b2d9;fill-opacity:1" />
        <line
           class="cls-13"
           x1="958.77"
           y1="329.42"
           x2="957.36"
           y2="329.58"
           id="line52"
           style="fill:#83b2d9;fill-opacity:1" />
      </g>
    </g>
    <g
       id="_26"
       serif:id="26"
       style="fill:#83b2d9;fill-opacity:1">
      <polygon
         class="cls-17"
         points="1000.42 342.08 1035.72 378.59 977.76 385.03 942.34 348.51 1000.42 342.08"
         id="polygon52"
         style="fill:#83b2d9;fill-opacity:1" />
      <g
         id="g53"
         style="fill:#000000;fill-opacity:1">
        <path
           class="cls-16"
           d="M1046.08,356.03v-1.53l5.76-6.31c.68-.74,1.23-1.38,1.67-1.93.44-.55.76-1.06.98-1.55.21-.49.32-1,.32-1.53,0-.61-.15-1.15-.44-1.59-.29-.45-.69-.8-1.2-1.04s-1.07-.37-1.7-.37c-.67,0-1.25.14-1.75.41s-.88.66-1.15,1.15c-.27.5-.41,1.07-.41,1.74h-2.01c0-1.02.24-1.92.71-2.69s1.12-1.38,1.93-1.81,1.73-.65,2.75-.65,1.93.22,2.72.65c.79.43,1.41,1.01,1.86,1.75.45.73.67,1.55.67,2.45,0,.64-.11,1.27-.34,1.88s-.63,1.29-1.19,2.04-1.35,1.66-2.35,2.73l-3.92,4.19v.14h8.11v1.88h-11.01Z"
           id="path52"
           style="fill:#000000;fill-opacity:1" />
        <path
           class="cls-16"
           d="M1066.4,356.27c-.72-.01-1.43-.15-2.15-.41-.72-.26-1.37-.7-1.96-1.33s-1.07-1.47-1.42-2.53c-.36-1.07-.54-2.41-.54-4.02s.14-2.92.43-4.11c.29-1.2.71-2.21,1.26-3.03.55-.82,1.22-1.45,2-1.87s1.66-.64,2.65-.64,1.85.2,2.61.58c.76.39,1.39.93,1.87,1.62.48.69.8,1.49.94,2.39h-2.08c-.19-.78-.57-1.43-1.12-1.95-.56-.52-1.3-.78-2.22-.78-1.35,0-2.42.59-3.19,1.76-.78,1.18-1.17,2.83-1.17,4.95h.14c.32-.48.7-.9,1.14-1.24s.93-.61,1.46-.8,1.1-.28,1.7-.28c1,0,1.91.25,2.74.75.83.5,1.49,1.18,1.99,2.05s.75,1.87.75,3-.24,2.07-.72,2.96c-.48.89-1.16,1.61-2.03,2.13-.87.53-1.9.78-3.07.77ZM1066.4,354.4c.72,0,1.36-.18,1.93-.54.57-.36,1.02-.84,1.36-1.44.33-.6.5-1.27.5-2.01s-.16-1.38-.48-1.97c-.32-.59-.76-1.07-1.32-1.42-.56-.35-1.2-.53-1.91-.53-.54,0-1.04.11-1.51.32-.47.21-.87.5-1.22.87-.35.37-.62.79-.82,1.27-.2.47-.3.97-.3,1.5,0,.69.16,1.34.49,1.94.33.6.78,1.09,1.35,1.46.57.37,1.22.55,1.95.55Z"
           id="path53"
           style="fill:#000000;fill-opacity:1" />
      </g>
      <g
         id="g55"
         style="fill:#83b2d9;fill-opacity:1">
        <line
           class="cls-13"
           x1="1037.34"
           y1="356.99"
           x2="1035.93"
           y2="357.14"
           id="line53"
           style="fill:#83b2d9;fill-opacity:1" />
        <line
           class="cls-1"
           x1="1032.95"
           y1="357.47"
           x2="992.65"
           y2="361.83"
           id="line54"
           style="fill:#83b2d9;fill-opacity:1" />
        <line
           class="cls-13"
           x1="991.16"
           y1="361.99"
           x2="989.75"
           y2="362.14"
           id="line55"
           style="fill:#83b2d9;fill-opacity:1" />
      </g>
    </g>
    <g
       id="_25"
       serif:id="25"
       style="fill:#83b2d9;fill-opacity:1">
      <polygon
         class="cls-17"
         points="1035.72 378.59 1063.48 407.03 1005.35 413.47 977.76 385.03 1035.72 378.59"
         id="polygon55"
         style="fill:#83b2d9;fill-opacity:1" />
      <g
         id="g56"
         style="fill:#000000;fill-opacity:1">
        <path
           class="cls-16"
           d="M1077.65,389.1v-1.53l5.76-6.31c.68-.74,1.23-1.38,1.67-1.93s.76-1.07.98-1.55c.21-.49.32-1,.32-1.53,0-.61-.15-1.14-.44-1.59-.29-.45-.69-.79-1.2-1.04-.51-.24-1.07-.37-1.71-.37-.67,0-1.25.14-1.75.41-.5.28-.88.66-1.15,1.16-.27.49-.4,1.07-.4,1.74h-2.01c0-1.02.24-1.92.71-2.69.47-.77,1.11-1.38,1.93-1.81s1.73-.65,2.75-.65,1.93.22,2.72.65,1.41,1.01,1.86,1.75c.45.73.67,1.55.67,2.45,0,.64-.12,1.27-.35,1.88-.23.61-.63,1.29-1.19,2.04-.57.75-1.35,1.66-2.35,2.73l-3.92,4.19v.14h8.11v1.88h-11.01Z"
           id="path55"
           style="fill:#000000;fill-opacity:1" />
        <path
           class="cls-16"
           d="M1097.63,389.34c-1,0-1.9-.2-2.7-.6-.8-.4-1.44-.94-1.93-1.64-.48-.69-.75-1.48-.79-2.37h2.05c.08.79.44,1.44,1.08,1.96.64.51,1.4.77,2.3.77.72,0,1.35-.17,1.91-.5.56-.33,1-.8,1.32-1.38s.48-1.25.48-2-.17-1.44-.5-2.04c-.33-.6-.79-1.07-1.37-1.42-.58-.35-1.24-.52-1.99-.53-.53,0-1.08.08-1.64.24s-1.03.38-1.39.64l-1.98-.24,1.06-8.59h9.07v1.88h-7.3l-.61,5.15h.1c.36-.28.81-.52,1.35-.71.54-.19,1.1-.28,1.69-.28,1.07,0,2.02.25,2.86.76.84.51,1.5,1.2,1.98,2.08s.72,1.89.72,3.02-.25,2.11-.75,2.98-1.18,1.56-2.05,2.06-1.86.75-2.97.75Z"
           id="path56"
           style="fill:#000000;fill-opacity:1" />
      </g>
      <g
         id="g58"
         style="fill:#83b2d9;fill-opacity:1">
        <line
           class="cls-13"
           x1="1068.92"
           y1="390.06"
           x2="1067.51"
           y2="390.21"
           id="line56"
           style="fill:#83b2d9;fill-opacity:1" />
        <line
           class="cls-1"
           x1="1064.52"
           y1="390.53"
           x2="1024.23"
           y2="394.89"
           id="line57"
           style="fill:#83b2d9;fill-opacity:1" />
        <line
           class="cls-13"
           x1="1022.74"
           y1="395.05"
           x2="1021.33"
           y2="395.21"
           id="line58"
           style="fill:#83b2d9;fill-opacity:1" />
      </g>
    </g>
    <g
       id="_24"
       serif:id="24"
       style="fill:#82bfa8;fill-opacity:1">
      <polygon
         class="cls-17"
         points="890.68 426.19 942.57 479.44 1114.94 460.28 1062.7 406.42 890.68 426.19"
         id="polygon58"
         style="fill:#82bfa8;fill-opacity:1" />
      <g
         id="g59"
         style="fill:#000000;fill-opacity:1">
        <path
           class="cls-16"
           d="M1115.06,428.96v-1.53l5.76-6.31c.68-.74,1.23-1.38,1.67-1.93s.76-1.07.98-1.55c.21-.49.32-1,.32-1.53,0-.61-.15-1.14-.44-1.59s-.69-.79-1.2-1.04c-.51-.24-1.07-.37-1.71-.37-.67,0-1.25.14-1.75.41-.5.28-.88.66-1.15,1.16-.27.49-.4,1.07-.4,1.74h-2.01c0-1.02.24-1.92.71-2.69.47-.77,1.11-1.38,1.93-1.81.81-.43,1.73-.65,2.75-.65s1.93.22,2.72.65c.79.43,1.41,1.01,1.86,1.75.45.73.67,1.55.67,2.45,0,.64-.12,1.27-.35,1.88-.23.61-.63,1.29-1.19,2.04s-1.35,1.66-2.35,2.73l-3.92,4.19v.14h8.11v1.88h-11.01Z"
           id="path58"
           style="fill:#000000;fill-opacity:1" />
        <path
           class="cls-16"
           d="M1129.17,425.38v-1.74l7.67-12.14h1.26v2.69h-.85l-5.79,9.17v.14h10.33v1.88h-12.61ZM1137.39,428.96v-17.46h2.01v17.46h-2.01Z"
           id="path59"
           style="fill:#000000;fill-opacity:1" />
      </g>
      <g
         id="g61"
         style="fill:#82bfa8;fill-opacity:1">
        <line
           class="cls-13"
           x1="1106.32"
           y1="429.92"
           x2="1104.91"
           y2="430.08"
           id="line59"
           style="fill:#82bfa8;fill-opacity:1" />
        <line
           class="cls-5"
           x1="1102.01"
           y1="430.39"
           x2="1062.79"
           y2="434.63"
           id="line60"
           style="fill:#82bfa8;fill-opacity:1" />
        <line
           class="cls-13"
           x1="1061.33"
           y1="434.79"
           x2="1059.93"
           y2="434.94"
           id="line61"
           style="fill:#82bfa8;fill-opacity:1" />
      </g>
    </g>
    <g
       id="_23"
       serif:id="23">
      <polygon
         class="cls-15"
         points="753.71 441.25 805.34 494.6 942.57 479.44 890.68 426.19 753.71 441.25"
         id="polygon61" />
      <g
         id="g62">
        <path
           class="cls-16"
           d="M797.03,417.28v-1.53l5.76-6.31c.68-.74,1.23-1.38,1.67-1.93s.76-1.07.98-1.55c.21-.49.32-1,.32-1.53,0-.61-.15-1.14-.44-1.59s-.69-.79-1.2-1.04c-.51-.24-1.07-.37-1.7-.37-.67,0-1.25.14-1.75.41-.5.28-.88.66-1.15,1.16s-.41,1.07-.41,1.74h-2.01c0-1.02.24-1.92.71-2.69.47-.77,1.12-1.38,1.93-1.81s1.73-.65,2.75-.65,1.93.22,2.72.65c.79.43,1.41,1.01,1.86,1.75.45.73.67,1.55.67,2.45,0,.64-.11,1.27-.34,1.88-.23.61-.63,1.29-1.19,2.04s-1.35,1.66-2.35,2.73l-3.92,4.19v.14h8.11v1.88h-11.01Z"
           id="path61" />
        <path
           class="cls-16"
           d="M817.45,417.52c-1.12,0-2.13-.19-3-.58-.88-.39-1.57-.92-2.09-1.62-.51-.69-.79-1.49-.84-2.41h2.15c.05.56.24,1.05.58,1.45s.79.72,1.34.94,1.16.33,1.83.33c.75,0,1.42-.13,1.99-.39.58-.26,1.03-.62,1.36-1.09.33-.47.49-1.01.49-1.62s-.16-1.21-.48-1.7c-.32-.49-.78-.88-1.4-1.15s-1.36-.42-2.25-.42h-1.4v-1.88h1.4c.69,0,1.3-.12,1.83-.38s.94-.6,1.24-1.06c.3-.45.45-.99.45-1.6s-.13-1.1-.39-1.54c-.26-.44-.63-.78-1.1-1.02-.47-.24-1.03-.37-1.67-.37-.6,0-1.17.11-1.7.33s-.96.53-1.3.95-.52.91-.54,1.49h-2.05c.03-.92.31-1.72.83-2.41.52-.69,1.19-1.23,2.03-1.62.84-.39,1.76-.58,2.77-.58,1.08,0,2.01.22,2.78.65.77.43,1.37,1.01,1.78,1.72s.62,1.48.62,2.3c0,.98-.26,1.82-.77,2.51-.51.69-1.21,1.17-2.09,1.44v.14c1.1.18,1.96.65,2.58,1.4s.93,1.68.93,2.79c0,.95-.26,1.8-.77,2.55-.51.75-1.21,1.35-2.1,1.78-.89.43-1.89.65-3.03.65Z"
           id="path62" />
      </g>
      <g
         id="g64">
        <line
           class="cls-13"
           x1="848.24"
           y1="458"
           x2="847.25"
           y2="456.98"
           id="line62" />
        <line
           class="cls-6"
           x1="845.29"
           y1="454.96"
           x2="814.86"
           y2="423.61"
           id="line63" />
        <line
           class="cls-13"
           x1="813.88"
           y1="422.6"
           x2="812.89"
           y2="421.58"
           id="line64" />
      </g>
    </g>
    <g
       id="_22"
       serif:id="22">
      <polygon
         class="cls-15"
         points="619.35 456.27 753.71 441.37 805.34 494.6 670.98 509.5 619.35 456.27"
         id="polygon64" />
      <g
         id="g65">
        <path
           class="cls-16"
           d="M665.36,432.13v-1.53l5.76-6.31c.68-.74,1.23-1.38,1.67-1.93s.76-1.07.98-1.55c.21-.49.32-1,.32-1.53,0-.61-.15-1.14-.44-1.59-.29-.45-.69-.79-1.2-1.04-.51-.24-1.07-.37-1.71-.37-.67,0-1.25.14-1.75.41-.5.28-.88.66-1.15,1.16-.27.49-.4,1.07-.4,1.74h-2.01c0-1.02.24-1.92.71-2.69.47-.77,1.11-1.38,1.93-1.81s1.73-.65,2.75-.65,1.93.22,2.72.65,1.41,1.01,1.86,1.75c.45.73.67,1.55.67,2.45,0,.64-.12,1.27-.35,1.88-.23.61-.63,1.29-1.19,2.04-.57.75-1.35,1.66-2.35,2.73l-3.92,4.19v.14h8.11v1.88h-11.01Z"
           id="path64" />
        <path
           class="cls-16"
           d="M679.88,432.13v-1.53l5.76-6.31c.68-.74,1.23-1.38,1.67-1.93s.76-1.07.98-1.55c.21-.49.32-1,.32-1.53,0-.61-.15-1.14-.44-1.59-.29-.45-.69-.79-1.2-1.04-.51-.24-1.07-.37-1.71-.37-.67,0-1.25.14-1.75.41-.5.28-.88.66-1.15,1.16-.27.49-.4,1.07-.4,1.74h-2.01c0-1.02.24-1.92.71-2.69.47-.77,1.11-1.38,1.93-1.81s1.73-.65,2.75-.65,1.93.22,2.72.65,1.41,1.01,1.86,1.75c.45.73.67,1.55.67,2.45,0,.64-.12,1.27-.35,1.88-.23.61-.63,1.29-1.19,2.04-.57.75-1.35,1.66-2.35,2.73l-3.92,4.19v.14h8.11v1.88h-11.01Z"
           id="path65" />
      </g>
      <g
         id="g67">
        <line
           class="cls-13"
           x1="716.57"
           y1="472.85"
           x2="715.58"
           y2="471.83"
           id="line65" />
        <line
           class="cls-6"
           x1="713.62"
           y1="469.81"
           x2="683.19"
           y2="438.46"
           id="line66" />
        <line
           class="cls-13"
           x1="682.21"
           y1="437.45"
           x2="681.23"
           y2="436.43"
           id="line67" />
      </g>
    </g>
    <g
       id="_21"
       serif:id="21"
       style="fill:#82bfa8;fill-opacity:1">
      <polygon
         class="cls-14"
         points="1166.17 513.09 1131.68 477.52 1068.92 484.38 1103.97 519.99 1166.17 513.09"
         id="polygon67"
         style="fill:#82bfa8;fill-opacity:1" />
      <g
         id="g68"
         style="fill:#000000;fill-opacity:1">
        <path
           class="cls-16"
           d="M1144.56,546.02v-1.53l5.76-6.31c.68-.74,1.23-1.38,1.67-1.93.44-.55.76-1.06.97-1.55.21-.49.32-1,.32-1.53,0-.61-.15-1.15-.44-1.59-.29-.45-.69-.8-1.2-1.04s-1.07-.37-1.7-.37c-.67,0-1.25.14-1.75.41-.5.28-.88.66-1.15,1.15-.27.5-.41,1.07-.41,1.74h-2.01c0-1.02.24-1.92.71-2.69.47-.77,1.11-1.38,1.93-1.81s1.73-.65,2.75-.65,1.93.22,2.72.65c.79.43,1.41,1.01,1.86,1.75.45.73.67,1.55.67,2.45,0,.64-.11,1.27-.34,1.88-.23.61-.63,1.29-1.19,2.04-.57.75-1.35,1.66-2.35,2.73l-3.92,4.19v.14h8.11v1.88h-11.01Z"
           id="path67"
           style="fill:#000000;fill-opacity:1" />
        <path
           class="cls-16"
           d="M1165.22,528.56v17.45h-2.11v-15.24h-.1l-4.26,2.83v-2.15l4.36-2.9h2.11Z"
           id="path68"
           style="fill:#000000;fill-opacity:1" />
      </g>
      <g
         id="g70"
         style="fill:#82bfa8;fill-opacity:1">
        <line
           class="cls-13"
           x1="1142.8"
           y1="523.38"
           x2="1141.83"
           y2="522.34"
           id="line68"
           style="fill:#82bfa8;fill-opacity:1" />
        <line
           class="cls-4"
           x1="1139.79"
           y1="520.17"
           x2="1124.54"
           y2="503.9"
           id="line69"
           style="fill:#82bfa8;fill-opacity:1" />
        <line
           class="cls-13"
           x1="1123.52"
           y1="502.81"
           x2="1122.55"
           y2="501.78"
           id="line70"
           style="fill:#82bfa8;fill-opacity:1" />
      </g>
    </g>
    <g
       id="_20"
       serif:id="20">
      <polygon
         class="cls-20"
         points="283.1 442.69 335.23 436.82 355.52 457.72 303.29 463.57 283.1 442.69"
         id="polygon70" />
      <g
         id="g71">
        <path
           class="cls-16"
           d="M373.65,443.36v-1.53l5.76-6.31c.68-.74,1.23-1.38,1.67-1.93.44-.55.76-1.06.98-1.55.21-.49.32-1,.32-1.53,0-.61-.15-1.15-.44-1.59-.29-.45-.69-.8-1.2-1.04-.51-.24-1.07-.37-1.71-.37-.67,0-1.25.14-1.75.41-.5.28-.88.66-1.15,1.15-.27.5-.4,1.07-.4,1.74h-2.01c0-1.02.24-1.92.71-2.69.47-.77,1.11-1.38,1.93-1.81s1.73-.65,2.75-.65,1.93.22,2.72.65,1.41,1.01,1.86,1.75c.45.73.67,1.55.67,2.45,0,.64-.12,1.27-.35,1.88-.23.61-.63,1.29-1.19,2.04-.57.75-1.35,1.66-2.35,2.73l-3.92,4.19v.14h8.11v1.88h-11.01Z"
           id="path70" />
        <path
           class="cls-16"
           d="M393.86,443.6c-1.28,0-2.38-.35-3.28-1.05-.9-.7-1.59-1.72-2.07-3.06-.48-1.34-.72-2.96-.72-4.85s.24-3.5.72-4.84c.48-1.34,1.17-2.36,2.08-3.07s2-1.06,3.27-1.06,2.36.35,3.27,1.06,1.6,1.73,2.08,3.07c.48,1.34.72,2.95.72,4.84s-.24,3.52-.72,4.85-1.17,2.36-2.07,3.06c-.9.7-2,1.05-3.28,1.05ZM393.86,441.72c1.27,0,2.26-.61,2.97-1.84.71-1.23,1.06-2.98,1.06-5.25,0-1.51-.16-2.8-.48-3.86-.32-1.06-.78-1.87-1.38-2.43-.6-.56-1.32-.83-2.16-.83-1.26,0-2.25.62-2.96,1.86-.71,1.24-1.07,3-1.07,5.26,0,1.51.16,2.79.48,3.85.32,1.06.78,1.86,1.38,2.41s1.32.83,2.17.83Z"
           id="path71" />
      </g>
      <g
         id="g73">
        <line
           class="cls-13"
           x1="364.91"
           y1="444.32"
           x2="363.5"
           y2="444.47"
           id="line71" />
        <line
           class="cls-3"
           x1="360.59"
           y1="444.79"
           x2="315.48"
           y2="449.67"
           id="line72" />
        <line
           class="cls-13"
           x1="314.02"
           y1="449.83"
           x2="312.61"
           y2="449.98"
           id="line73" />
      </g>
    </g>
    <g
       id="_19"
       serif:id="19">
      <polygon
         class="cls-20"
         points="254.04 412.79 306.19 406.88 335.23 436.82 283.49 443.15 254.04 412.79"
         id="polygon73" />
      <g
         id="g74">
        <path
           class="cls-16"
           d="M350.66,398.15v17.46h-2.11v-15.24h-.1l-4.26,2.83v-2.15l4.36-2.9h2.11Z"
           id="path73" />
        <path
           class="cls-16"
           d="M361.22,397.91c.72,0,1.43.14,2.15.41.72.27,1.37.71,1.96,1.33.59.62,1.07,1.46,1.42,2.52s.54,2.39.54,4-.15,2.93-.44,4.13c-.29,1.2-.71,2.21-1.26,3.04-.55.82-1.21,1.45-1.99,1.88-.78.43-1.66.64-2.65.64s-1.85-.19-2.61-.58c-.76-.39-1.39-.93-1.88-1.63-.49-.7-.8-1.5-.93-2.42h2.08c.19.8.56,1.46,1.12,1.98.56.52,1.3.78,2.22.78,1.35,0,2.41-.59,3.19-1.76.78-1.18,1.17-2.84,1.17-4.99h-.14c-.32.48-.7.89-1.13,1.24s-.92.61-1.46.8c-.53.19-1.1.28-1.7.28-1,0-1.92-.25-2.75-.75s-1.5-1.18-1.99-2.05-.75-1.87-.75-3,.24-2.05.72-2.94c.48-.89,1.16-1.6,2.03-2.13s1.9-.78,3.08-.77ZM361.22,399.79c-.72,0-1.36.18-1.93.53-.57.36-1.02.83-1.35,1.43-.33.6-.5,1.26-.5,1.99s.16,1.39.48,1.98c.32.59.76,1.07,1.32,1.42s1.2.52,1.91.52c.54,0,1.04-.11,1.51-.32.47-.21.87-.51,1.22-.88.35-.37.62-.8.82-1.27.2-.47.3-.97.3-1.49,0-.68-.16-1.32-.49-1.92s-.78-1.08-1.35-1.45c-.57-.37-1.22-.55-1.95-.55Z"
           id="path74" />
      </g>
      <g
         id="g76">
        <line
           class="cls-13"
           x1="335.78"
           y1="416.56"
           x2="334.37"
           y2="416.72"
           id="line74" />
        <line
           class="cls-3"
           x1="331.46"
           y1="417.03"
           x2="286.35"
           y2="421.91"
           id="line75" />
        <line
           class="cls-13"
           x1="284.9"
           y1="422.07"
           x2="283.49"
           y2="422.22"
           id="line76" />
      </g>
    </g>
    <g
       id="_18"
       serif:id="18">
      <polygon
         class="cls-20"
         points="286.06 386.11 233.84 391.97 254.04 412.79 306.19 406.88 286.06 386.11"
         id="polygon76" />
      <g
         id="g77">
        <path
           class="cls-16"
           d="M331.2,375.95v17.45h-2.11v-15.24h-.1l-4.26,2.83v-2.15l4.36-2.9h2.11Z"
           id="path76" />
        <path
           class="cls-16"
           d="M341.8,393.64c-1.17,0-2.2-.21-3.1-.63-.9-.42-1.59-.99-2.09-1.73-.5-.74-.75-1.58-.74-2.52,0-.74.14-1.42.43-2.05.29-.63.7-1.15,1.21-1.58.51-.42,1.09-.69,1.73-.81v-.1c-.83-.22-1.5-.69-1.99-1.41-.5-.72-.74-1.55-.73-2.48,0-.89.22-1.68.67-2.38.45-.7,1.08-1.25,1.88-1.65.8-.4,1.71-.61,2.73-.61s1.92.2,2.71.61c.8.4,1.42.96,1.88,1.65.46.7.69,1.49.69,2.38,0,.93-.26,1.75-.75,2.48-.5.72-1.16,1.2-1.97,1.41v.1c.63.11,1.2.38,1.71.81.5.42.91.95,1.21,1.58.3.63.45,1.31.46,2.05,0,.94-.26,1.78-.76,2.52-.5.74-1.2,1.31-2.09,1.73-.89.42-1.92.63-3.08.63ZM341.8,391.77c.79,0,1.47-.13,2.05-.38.57-.26,1.02-.62,1.33-1.08s.47-1.01.48-1.64c0-.66-.18-1.24-.51-1.75s-.79-.9-1.37-1.19c-.58-.29-1.23-.43-1.97-.43s-1.41.14-1.99.43c-.58.29-1.04.69-1.37,1.19s-.5,1.09-.49,1.75c0,.62.15,1.17.46,1.64s.75.83,1.33,1.08,1.27.38,2.06.38ZM341.8,383.49c.62,0,1.18-.12,1.67-.38.49-.25.87-.6,1.15-1.05.28-.45.42-.97.43-1.58,0-.59-.14-1.11-.42-1.55-.27-.44-.65-.78-1.13-1.02-.48-.24-1.05-.36-1.69-.36s-1.22.12-1.71.36c-.49.24-.87.58-1.13,1.02-.27.44-.4.96-.39,1.55,0,.6.13,1.13.4,1.58.28.45.66.8,1.15,1.05s1.05.38,1.69.38Z"
           id="path77" />
      </g>
      <g
         id="g79">
        <line
           class="cls-13"
           x1="316.32"
           y1="394.37"
           x2="314.91"
           y2="394.52"
           id="line77" />
        <line
           class="cls-3"
           x1="312"
           y1="394.83"
           x2="266.89"
           y2="399.71"
           id="line78" />
        <line
           class="cls-13"
           x1="265.43"
           y1="399.87"
           x2="264.02"
           y2="400.02"
           id="line79" />
      </g>
    </g>
    <g
       id="_17"
       serif:id="17">
      <polygon
         class="cls-20"
         points="204.43 361.65 256.59 355.74 286.06 386.11 233.84 391.97 204.43 361.65"
         id="polygon79" />
      <g
         id="g80">
        <path
           class="cls-16"
           d="M302.09,349.37v17.46h-2.11v-15.24h-.1l-4.26,2.83v-2.15l4.36-2.9h2.11Z"
           id="path79" />
        <path
           class="cls-16"
           d="M307.64,366.83l7.81-15.44v-.14h-9v-1.88h11.18v1.98l-7.77,15.48h-2.22Z"
           id="path80" />
      </g>
      <g
         id="g82">
        <line
           class="cls-13"
           x1="287.21"
           y1="367.79"
           x2="285.81"
           y2="367.94"
           id="line80" />
        <line
           class="cls-3"
           x1="282.89"
           y1="368.25"
           x2="237.78"
           y2="373.14"
           id="line81" />
        <line
           class="cls-13"
           x1="236.33"
           y1="373.29"
           x2="234.92"
           y2="373.44"
           id="line82" />
      </g>
    </g>
    <g
       id="_16"
       serif:id="16">
      <polygon
         class="cls-20"
         points="236.58 335.12 184.7 340.78 204.43 361.65 256.59 355.74 236.58 335.12"
         id="polygon82" />
      <g
         id="g83">
        <path
           class="cls-16"
           d="M277.42,323.13v17.46h-2.11v-15.24h-.1l-4.26,2.83v-2.15l4.36-2.9h2.11Z"
           id="path82" />
        <path
           class="cls-16"
           d="M288.23,340.82c-.72-.01-1.43-.15-2.15-.41-.72-.26-1.37-.7-1.96-1.33s-1.06-1.47-1.42-2.53-.54-2.4-.54-4.02.15-2.92.43-4.11c.29-1.2.71-2.2,1.26-3.03.55-.82,1.22-1.44,2-1.87.78-.43,1.66-.64,2.65-.64s1.85.19,2.61.58c.76.39,1.39.93,1.87,1.62.48.69.79,1.49.94,2.4h-2.08c-.19-.78-.57-1.43-1.12-1.95-.56-.52-1.29-.78-2.22-.78-1.35,0-2.42.59-3.19,1.76-.78,1.18-1.17,2.83-1.17,4.95h.14c.32-.48.7-.9,1.14-1.24.44-.34.93-.61,1.46-.8s1.1-.28,1.7-.28c1,0,1.92.25,2.74.75.83.5,1.49,1.18,1.99,2.05s.75,1.87.75,3-.24,2.07-.72,2.96c-.48.9-1.16,1.61-2.03,2.13-.87.53-1.9.78-3.07.77ZM288.23,338.95c.72,0,1.36-.18,1.93-.54.57-.36,1.02-.84,1.35-1.44.33-.6.5-1.27.5-2.01s-.16-1.38-.48-1.97c-.32-.59-.76-1.07-1.32-1.42-.56-.35-1.2-.53-1.91-.53-.54,0-1.04.11-1.51.32-.47.21-.87.5-1.22.87s-.62.79-.82,1.27c-.2.47-.3.97-.3,1.5,0,.69.16,1.34.49,1.94.33.6.78,1.09,1.35,1.46s1.22.55,1.95.55Z"
           id="path83" />
      </g>
      <g
         id="g85">
        <line
           class="cls-13"
           x1="262.55"
           y1="341.54"
           x2="261.14"
           y2="341.7"
           id="line83" />
        <line
           class="cls-3"
           x1="258.23"
           y1="342.01"
           x2="213.11"
           y2="346.89"
           id="line84" />
        <line
           class="cls-13"
           x1="211.66"
           y1="347.05"
           x2="210.25"
           y2="347.2"
           id="line85" />
      </g>
    </g>
    <g
       id="_15"
       serif:id="15">
      <polygon
         class="cls-20"
         points="132.04 346.69 101.93 315.65 206.45 304.06 236.58 335.12 132.04 346.69"
         id="polygon85" />
      <g
         id="g86">
        <path
           class="cls-16"
           d="M137.98,270.7v17.45h-2.11v-15.24h-.1l-4.26,2.83v-2.15l4.36-2.9h2.11Z"
           id="path85" />
        <path
           class="cls-16"
           d="M148.45,288.39c-1,0-1.9-.2-2.7-.6-.8-.4-1.44-.94-1.93-1.64-.48-.69-.75-1.48-.79-2.37h2.05c.08.79.44,1.44,1.08,1.96.64.51,1.4.77,2.3.77.72,0,1.35-.17,1.91-.5.56-.34,1-.8,1.32-1.38.32-.59.48-1.25.48-2s-.17-1.44-.5-2.04c-.33-.6-.79-1.07-1.37-1.42-.58-.35-1.24-.52-1.99-.53-.53,0-1.08.08-1.64.24-.56.17-1.03.38-1.39.64l-1.98-.24,1.06-8.59h9.07v1.88h-7.3l-.61,5.15h.1c.36-.28.81-.52,1.35-.71.54-.19,1.1-.28,1.69-.28,1.07,0,2.02.25,2.86.76.84.51,1.5,1.2,1.98,2.08s.72,1.89.72,3.02-.25,2.11-.75,2.98c-.5.87-1.18,1.56-2.05,2.06s-1.86.75-2.97.75Z"
           id="path86" />
      </g>
      <g
         id="g88">
        <line
           class="cls-13"
           x1="170.04"
           y1="321.25"
           x2="169.16"
           y2="320.15"
           id="line86" />
        <line
           class="cls-9"
           x1="167.48"
           y1="318.06"
           x2="151.58"
           y2="298.25"
           id="line87" />
        <line
           class="cls-13"
           x1="150.74"
           y1="297.21"
           x2="149.85"
           y2="296.1"
           id="line88" />
      </g>
    </g>
    <g
       id="_14"
       serif:id="14">
      <polygon
         class="cls-20"
         points="152.07 367.35 204.43 361.65 184.24 340.83 132.04 346.69 152.07 367.35"
         id="polygon88" />
      <g
         id="g89">
        <path
           class="cls-16"
           d="M93.89,343.63v17.45h-2.11v-15.24h-.1l-4.26,2.83v-2.15l4.36-2.9h2.11Z"
           id="path88" />
        <path
           class="cls-16"
           d="M98.49,357.51v-1.74l7.67-12.14h1.26v2.69h-.85l-5.8,9.17v.14h10.33v1.88h-12.61ZM106.71,361.09v-17.45h2.01v17.45h-2.01Z"
           id="path89" />
      </g>
      <g
         id="g91">
        <line
           class="cls-13"
           x1="176.42"
           y1="352.33"
           x2="175.01"
           y2="352.48"
           id="line89" />
        <line
           class="cls-7"
           x1="172.28"
           y1="352.79"
           x2="124.41"
           y2="358.15"
           id="line90" />
        <line
           class="cls-13"
           x1="123.04"
           y1="358.3"
           x2="121.63"
           y2="358.46"
           id="line91" />
      </g>
    </g>
    <g
       id="_13"
       serif:id="13">
      <polygon
         class="cls-20"
         points="233.84 391.97 204.43 361.65 152.07 367.35 181.52 397.7 233.84 391.97"
         id="polygon91" />
      <g
         id="g92">
        <path
           class="cls-16"
           d="M114.41,369.67v17.45h-2.11v-15.24h-.1l-4.26,2.83v-2.15l4.36-2.9h2.11Z"
           id="path91" />
        <path
           class="cls-16"
           d="M125.32,387.37c-1.12,0-2.13-.19-3-.58-.88-.39-1.57-.92-2.09-1.62-.51-.69-.79-1.49-.84-2.41h2.15c.05.56.24,1.05.58,1.45.34.41.79.72,1.34.94.55.22,1.16.33,1.83.33.75,0,1.42-.13,1.99-.39.58-.26,1.03-.62,1.36-1.09.33-.47.49-1.01.49-1.62s-.16-1.21-.48-1.7-.78-.88-1.4-1.16-1.36-.42-2.25-.42h-1.4v-1.88h1.4c.69,0,1.3-.12,1.83-.38s.94-.6,1.24-1.06c.3-.45.45-.99.45-1.6s-.13-1.11-.39-1.54-.63-.78-1.1-1.02-1.03-.37-1.67-.37c-.6,0-1.17.11-1.7.33s-.96.53-1.3.95-.52.91-.55,1.49h-2.04c.03-.92.31-1.72.83-2.41.52-.69,1.2-1.23,2.03-1.62s1.76-.58,2.77-.58c1.08,0,2.01.22,2.78.65s1.37,1.01,1.78,1.72c.42.71.62,1.48.62,2.3,0,.98-.26,1.82-.77,2.51-.51.69-1.21,1.17-2.09,1.44v.14c1.1.18,1.96.65,2.58,1.4s.93,1.68.93,2.79c0,.95-.26,1.8-.77,2.55-.51.75-1.21,1.34-2.1,1.78s-1.89.65-3.03.65Z"
           id="path92" />
      </g>
      <g
         id="g94">
        <line
           class="cls-13"
           x1="196.94"
           y1="378.37"
           x2="195.54"
           y2="378.53"
           id="line92" />
        <line
           class="cls-7"
           x1="192.8"
           y1="378.83"
           x2="144.93"
           y2="384.19"
           id="line93" />
        <line
           class="cls-13"
           x1="143.56"
           y1="384.34"
           x2="142.15"
           y2="384.5"
           id="line94" />
      </g>
    </g>
    <g
       id="_12"
       serif:id="12">
      <polygon
         class="cls-20"
         points="201.74 418.55 254.04 412.79 233.84 391.97 181.52 397.7 201.74 418.55"
         id="polygon94" />
      <g
         id="g95">
        <path
           class="cls-16"
           d="M143.39,396.27v17.45h-2.11v-15.24h-.1l-4.26,2.83v-2.15l4.36-2.9h2.11Z"
           id="path94" />
        <path
           class="cls-16"
           d="M148.4,413.72v-1.53l5.76-6.31c.68-.74,1.23-1.38,1.67-1.93.44-.55.76-1.06.98-1.55.21-.49.32-1,.32-1.53,0-.61-.15-1.15-.44-1.59-.29-.45-.69-.8-1.2-1.04-.51-.24-1.07-.37-1.71-.37-.67,0-1.25.14-1.75.41-.5.28-.88.66-1.15,1.15-.27.5-.4,1.07-.4,1.74h-2.01c0-1.02.24-1.92.71-2.69.47-.77,1.12-1.38,1.93-1.81s1.73-.65,2.75-.65,1.93.22,2.72.65c.79.43,1.41,1.01,1.86,1.75.45.73.67,1.55.67,2.45,0,.64-.12,1.27-.35,1.88s-.63,1.29-1.19,2.04c-.56.75-1.35,1.66-2.35,2.73l-3.92,4.19v.14h8.11v1.88h-11.01Z"
           id="path95" />
      </g>
      <g
         id="g97">
        <line
           class="cls-13"
           x1="225.92"
           y1="404.96"
           x2="224.51"
           y2="405.12"
           id="line95" />
        <line
           class="cls-7"
           x1="221.78"
           y1="405.43"
           x2="173.91"
           y2="410.78"
           id="line96" />
        <line
           class="cls-13"
           x1="172.54"
           y1="410.93"
           x2="171.13"
           y2="411.09"
           id="line97" />
      </g>
    </g>
    <g
       id="_11"
       serif:id="11">
      <polygon
         class="cls-20"
         points="230.6 448.3 283.49 442.75 254.04 412.79 201.74 418.55 230.6 448.3"
         id="polygon97" />
      <g
         id="g98">
        <path
           class="cls-16"
           d="M168.84,418.09v17.46h-2.11v-15.24h-.1l-4.26,2.83v-2.15l4.36-2.9h2.11Z"
           id="path97" />
        <path
           class="cls-16"
           d="M179.99,418.09v17.46h-2.11v-15.24h-.1l-4.26,2.83v-2.15l4.36-2.9h2.11Z"
           id="path98" />
      </g>
      <g
         id="g100">
        <line
           class="cls-13"
           x1="246.37"
           y1="426.78"
           x2="244.96"
           y2="426.94"
           id="line98" />
        <line
           class="cls-7"
           x1="242.23"
           y1="427.25"
           x2="194.36"
           y2="432.6"
           id="line99" />
        <line
           class="cls-13"
           x1="192.99"
           y1="432.76"
           x2="191.58"
           y2="432.91"
           id="line100" />
      </g>
    </g>
    <g
       id="_10"
       serif:id="10">
      <polygon
         class="cls-20"
         points="251.16 469.5 303.29 463.57 283.1 442.75 230.6 448.3 251.16 469.5"
         id="polygon100" />
      <g
         id="g101">
        <path
           class="cls-16"
           d="M193.41,446.67v17.45h-2.11v-15.24h-.1l-4.26,2.83v-2.15l4.36-2.9h2.11Z"
           id="path100" />
        <path
           class="cls-16"
           d="M204.11,464.37c-1.28,0-2.38-.35-3.28-1.05-.9-.7-1.59-1.72-2.07-3.06-.48-1.34-.72-2.96-.72-4.85s.24-3.5.72-4.84,1.17-2.36,2.08-3.07,2-1.06,3.27-1.06,2.36.35,3.27,1.06,1.6,1.73,2.08,3.07c.48,1.34.72,2.95.72,4.84s-.24,3.52-.72,4.85-1.17,2.36-2.07,3.06c-.9.7-2,1.05-3.28,1.05ZM204.11,462.49c1.27,0,2.26-.61,2.97-1.84.7-1.23,1.06-2.98,1.06-5.25,0-1.51-.16-2.8-.48-3.86-.32-1.06-.78-1.87-1.38-2.43-.6-.56-1.32-.83-2.16-.83-1.26,0-2.25.62-2.96,1.86-.71,1.24-1.07,3-1.07,5.26,0,1.51.16,2.79.48,3.85s.78,1.86,1.38,2.41c.6.55,1.32.83,2.17.83Z"
           id="path101" />
      </g>
      <g
         id="g103">
        <line
           class="cls-13"
           x1="275.94"
           y1="455.37"
           x2="274.54"
           y2="455.53"
           id="line101" />
        <line
           class="cls-7"
           x1="271.8"
           y1="455.83"
           x2="223.93"
           y2="461.19"
           id="line102" />
        <line
           class="cls-13"
           x1="222.56"
           y1="461.34"
           x2="221.15"
           y2="461.5"
           id="line103" />
      </g>
    </g>
    <g
       id="_9"
       serif:id="9">
      <polygon
         class="cls-20"
         points="379.84 482.81 355.52 457.72 251.16 469.5 275.92 495.03 379.84 482.81"
         id="polygon103" />
      <path
         class="cls-16"
         d="M223.67,470.22c.71,0,1.43.14,2.15.41.72.27,1.37.71,1.96,1.33.59.62,1.07,1.46,1.42,2.52.36,1.06.54,2.4.54,4s-.15,2.93-.44,4.13c-.29,1.2-.71,2.21-1.26,3.04-.55.82-1.21,1.45-1.99,1.88s-1.66.64-2.65.64-1.85-.2-2.61-.58c-.76-.39-1.39-.93-1.88-1.63s-.8-1.5-.93-2.42h2.08c.19.8.56,1.46,1.12,1.98.56.52,1.3.78,2.22.78,1.35,0,2.41-.59,3.19-1.76s1.17-2.84,1.17-4.99h-.14c-.32.48-.7.89-1.13,1.24s-.92.61-1.46.8c-.53.19-1.1.28-1.71.28-1,0-1.92-.25-2.75-.75s-1.5-1.18-1.99-2.05c-.5-.87-.75-1.87-.75-3s.24-2.05.72-2.94c.48-.89,1.16-1.6,2.03-2.13.87-.53,1.9-.78,3.08-.77ZM223.67,472.09c-.72,0-1.36.18-1.93.53-.57.36-1.02.83-1.35,1.43s-.5,1.26-.5,1.99.16,1.39.48,1.98c.32.59.76,1.07,1.32,1.42.56.35,1.2.52,1.91.52.54,0,1.04-.11,1.51-.32.47-.21.87-.51,1.22-.88.35-.37.62-.79.82-1.27.2-.47.3-.97.3-1.49,0-.68-.16-1.32-.49-1.92-.33-.6-.78-1.08-1.35-1.45-.57-.37-1.22-.55-1.95-.55Z"
         id="path103" />
      <g
         id="g106">
        <line
           class="cls-13"
           x1="312.51"
           y1="477.3"
           x2="311.1"
           y2="477.46"
           id="line104" />
        <line
           class="cls-11"
           x1="308.36"
           y1="477.77"
           x2="244.02"
           y2="484.97"
           id="line105" />
        <line
           class="cls-13"
           x1="242.65"
           y1="485.12"
           x2="241.24"
           y2="485.28"
           id="line106" />
      </g>
    </g>
    <g
       id="_8"
       serif:id="8">
      <polygon
         class="cls-18"
         points="605.42 457.81 657.05 511.04 546.19 523.33 494.53 469.97 605.42 457.81"
         id="polygon106" />
      <path
         class="cls-16"
         d="M537,450.54c-1.17,0-2.2-.21-3.1-.63-.9-.42-1.59-.99-2.09-1.73-.5-.74-.75-1.58-.74-2.52,0-.74.14-1.42.43-2.05.29-.63.7-1.15,1.21-1.58.51-.42,1.09-.69,1.73-.81v-.1c-.83-.22-1.5-.69-1.99-1.41-.5-.72-.74-1.55-.73-2.48,0-.89.22-1.68.67-2.38.45-.7,1.08-1.25,1.88-1.65.8-.4,1.71-.61,2.73-.61s1.92.2,2.71.61c.8.4,1.42.95,1.88,1.65.46.7.69,1.49.69,2.38,0,.93-.26,1.75-.75,2.48-.5.72-1.16,1.19-1.97,1.41v.1c.63.11,1.2.38,1.71.81.5.42.91.95,1.21,1.58.3.63.45,1.31.46,2.05,0,.94-.26,1.78-.76,2.52-.5.74-1.2,1.31-2.09,1.73-.89.42-1.92.63-3.08.63ZM537,448.67c.79,0,1.47-.13,2.05-.38.57-.25,1.02-.62,1.33-1.08s.47-1.01.48-1.64c0-.66-.18-1.24-.51-1.75-.33-.5-.79-.9-1.37-1.19-.58-.29-1.23-.43-1.97-.43s-1.41.15-1.99.43c-.58.29-1.04.69-1.37,1.19-.33.51-.5,1.09-.49,1.75,0,.62.15,1.17.46,1.64s.75.83,1.33,1.08c.58.26,1.27.38,2.06.38ZM537,440.39c.62,0,1.18-.12,1.67-.38.49-.25.87-.6,1.15-1.05.28-.45.42-.97.43-1.58,0-.59-.14-1.11-.42-1.55-.27-.44-.65-.78-1.13-1.02-.48-.24-1.05-.36-1.69-.36s-1.22.12-1.71.36c-.49.24-.87.58-1.13,1.02-.27.44-.4.96-.39,1.55,0,.6.13,1.13.4,1.58.28.45.66.8,1.15,1.05s1.05.38,1.69.38Z"
         id="path106" />
      <g
         id="g109">
        <line
           class="cls-13"
           x1="577.62"
           y1="491.02"
           x2="576.64"
           y2="490.01"
           id="line107" />
        <line
           class="cls-6"
           x1="574.67"
           y1="487.99"
           x2="544.25"
           y2="456.64"
           id="line108" />
        <line
           class="cls-13"
           x1="543.27"
           y1="455.62"
           x2="542.28"
           y2="454.61"
           id="line109" />
      </g>
    </g>
    <g
       id="_7"
       serif:id="7">
      <polygon
         class="cls-18"
         points="494.53 469.97 546.53 523.69 431.37 536.77 379.84 482.81 494.53 469.97"
         id="polygon109" />
      <path
         class="cls-16"
         d="M420.29,462.19l7.81-15.44v-.14h-9v-1.88h11.18v1.98l-7.77,15.48h-2.22Z"
         id="path109" />
      <g
         id="g112">
        <line
           class="cls-13"
           x1="465.95"
           y1="502.91"
           x2="464.97"
           y2="501.9"
           id="line110" />
        <line
           class="cls-6"
           x1="463"
           y1="499.87"
           x2="432.58"
           y2="468.52"
           id="line111" />
        <line
           class="cls-13"
           x1="431.6"
           y1="467.51"
           x2="430.61"
           y2="466.49"
           id="line112" />
      </g>
    </g>
    <g
       id="_6"
       serif:id="6">
      <polygon
         class="cls-18"
         points="446.95 553.08 379.84 482.81 275.06 494.14 343.37 564.56 446.95 553.08"
         id="polygon112" />
      <path
         class="cls-16"
         d="M268.14,537.54c-.72-.01-1.43-.15-2.15-.41-.72-.26-1.37-.7-1.96-1.33s-1.06-1.47-1.42-2.53-.54-2.41-.54-4.02.15-2.92.43-4.11c.29-1.2.71-2.21,1.26-3.03.55-.82,1.22-1.45,2-1.87s1.66-.64,2.65-.64,1.85.2,2.61.58c.76.39,1.39.93,1.87,1.62.48.69.79,1.49.94,2.39h-2.08c-.19-.78-.57-1.43-1.12-1.95-.56-.52-1.29-.78-2.22-.78-1.35,0-2.42.59-3.19,1.76s-1.17,2.83-1.17,4.95h.14c.32-.48.7-.9,1.14-1.24.44-.34.93-.61,1.46-.8s1.1-.28,1.7-.28c1,0,1.92.25,2.74.75.83.5,1.49,1.18,1.99,2.05s.75,1.87.75,3-.24,2.07-.72,2.96c-.48.89-1.16,1.61-2.03,2.13s-1.9.78-3.07.77ZM268.14,535.67c.72,0,1.36-.18,1.93-.54.57-.36,1.02-.84,1.35-1.44.33-.6.5-1.27.5-2.01s-.16-1.38-.48-1.97c-.32-.59-.76-1.07-1.32-1.42s-1.2-.53-1.91-.53c-.54,0-1.04.11-1.51.32s-.87.5-1.22.87c-.35.37-.62.79-.82,1.27-.2.47-.3.97-.3,1.5,0,.69.16,1.34.49,1.94.33.6.78,1.09,1.35,1.46.57.37,1.22.55,1.95.55Z"
         id="path112" />
      <g
         id="g115">
        <line
           class="cls-13"
           x1="363.86"
           y1="526.1"
           x2="362.45"
           y2="526.26"
           id="line113" />
        <line
           class="cls-8"
           x1="359.71"
           y1="526.56"
           x2="290.01"
           y2="534.36"
           id="line114" />
        <line
           class="cls-13"
           x1="288.64"
           y1="534.51"
           x2="287.23"
           y2="534.67"
           id="line115" />
      </g>
    </g>
    <g
       id="_5"
       serif:id="5">
      <polygon
         class="cls-18"
         points="547.42 523.59 563.77 540.13 447.26 553.43 430.61 536.05 547.42 523.59"
         id="polygon115" />
      <path
         class="cls-16"
         d="M525.53,582.99c-1,0-1.9-.2-2.7-.6-.8-.4-1.44-.94-1.93-1.64-.48-.69-.75-1.48-.79-2.37h2.05c.08.79.44,1.44,1.08,1.96.64.51,1.4.77,2.3.77.72,0,1.35-.17,1.91-.5.56-.34,1-.8,1.32-1.38.32-.59.48-1.25.48-2s-.17-1.44-.5-2.04c-.33-.6-.79-1.07-1.37-1.42-.58-.35-1.24-.52-1.99-.53-.53,0-1.08.08-1.64.24-.56.17-1.03.38-1.39.64l-1.98-.24,1.06-8.59h9.07v1.88h-7.3l-.61,5.15h.1c.36-.28.81-.52,1.35-.71.54-.19,1.1-.28,1.69-.28,1.07,0,2.02.25,2.86.76s1.5,1.2,1.98,2.08.72,1.89.72,3.02-.25,2.11-.75,2.98-1.18,1.56-2.05,2.06-1.86.75-2.97.75Z"
         id="path115" />
      <g
         id="g118">
        <line
           class="cls-13"
           x1="518.31"
           y1="560.11"
           x2="517.34"
           y2="559.07"
           id="line116" />
        <line
           class="cls-4"
           x1="515.3"
           y1="556.9"
           x2="500.05"
           y2="540.63"
           id="line117" />
        <line
           class="cls-13"
           x1="499.03"
           y1="539.55"
           x2="498.06"
           y2="538.51"
           id="line118" />
      </g>
    </g>
    <g
       id="_4"
       serif:id="4">
      <polygon
         class="cls-18"
         points="664.07 510.27 680.36 527.06 564.3 540.67 547.42 523.59 664.07 510.27"
         id="polygon118" />
      <path
         class="cls-16"
         d="M631.67,566.17v-1.74l7.67-12.14h1.26v2.69h-.85l-5.8,9.17v.14h10.33v1.88h-12.61ZM639.88,569.75v-17.45h2.01v17.45h-2.01Z"
         id="path118" />
      <g
         id="g121">
        <line
           class="cls-13"
           x1="630.31"
           y1="547.11"
           x2="629.34"
           y2="546.07"
           id="line119" />
        <line
           class="cls-4"
           x1="627.3"
           y1="543.9"
           x2="612.05"
           y2="527.63"
           id="line120" />
        <line
           class="cls-13"
           x1="611.03"
           y1="526.55"
           x2="610.06"
           y2="525.51"
           id="line121" />
      </g>
    </g>
    <g
       id="_3"
       serif:id="3">
      <polygon
         class="cls-18"
         points="694.49 533.9 731.11 571.65 761.48 568.29 725.13 530.5 694.49 533.9"
         id="polygon121" />
      <path
         class="cls-16"
         d="M678.68,561.25c-1.12,0-2.13-.19-3-.58-.88-.39-1.57-.92-2.09-1.62-.51-.69-.79-1.49-.84-2.41h2.15c.04.56.24,1.05.58,1.45.34.41.79.72,1.34.94s1.16.33,1.83.33c.75,0,1.42-.13,1.99-.39.58-.26,1.03-.62,1.36-1.09.33-.47.5-1.01.5-1.62s-.16-1.21-.48-1.7-.78-.88-1.4-1.16c-.61-.28-1.36-.42-2.25-.42h-1.4v-1.88h1.4c.69,0,1.3-.12,1.83-.38.53-.25.94-.6,1.24-1.06.3-.45.45-.99.45-1.6s-.13-1.11-.39-1.54-.63-.78-1.1-1.02c-.47-.24-1.03-.37-1.67-.37-.6,0-1.17.11-1.7.33-.53.22-.96.53-1.3.95-.34.41-.52.91-.54,1.49h-2.05c.03-.92.31-1.72.83-2.41.52-.69,1.19-1.23,2.03-1.62.84-.39,1.76-.58,2.77-.58,1.08,0,2,.22,2.78.65.77.43,1.37,1.01,1.78,1.72.41.71.62,1.48.62,2.3,0,.98-.26,1.82-.77,2.51-.51.69-1.21,1.17-2.09,1.44v.14c1.1.18,1.96.65,2.58,1.4.62.75.93,1.68.93,2.79,0,.95-.26,1.8-.77,2.55-.51.75-1.21,1.34-2.1,1.78-.89.43-1.9.65-3.03.65Z"
         id="path121" />
      <g
         id="g124">
        <line
           class="cls-13"
           x1="727.99"
           y1="550.26"
           x2="726.57"
           y2="550.38"
           id="line122" />
        <line
           class="cls-2"
           x1="723.65"
           y1="550.63"
           x2="695.83"
           y2="553.02"
           id="line123" />
        <line
           class="cls-13"
           x1="694.36"
           y1="553.15"
           x2="692.95"
           y2="553.27"
           id="line124" />
      </g>
    </g>
    <g
       id="_2"
       serif:id="2">
      <polygon
         class="cls-18"
         points="717.89 523.04 776.18 583.44 815.08 579.12 756.65 518.88 717.89 523.04"
         id="polygon124" />
      <path
         class="cls-16"
         d="M807.15,546.93v-1.53l5.76-6.31c.68-.74,1.23-1.38,1.67-1.93s.76-1.07.97-1.55c.21-.49.32-1,.32-1.53,0-.61-.15-1.14-.44-1.59s-.69-.79-1.2-1.04c-.51-.24-1.07-.37-1.7-.37-.67,0-1.25.14-1.75.41-.5.28-.88.66-1.15,1.16-.27.49-.41,1.07-.41,1.74h-2.01c0-1.02.24-1.92.71-2.69.47-.77,1.11-1.38,1.93-1.81s1.73-.65,2.75-.65,1.93.22,2.72.65c.79.43,1.41,1.01,1.86,1.75.45.73.67,1.55.67,2.45,0,.64-.11,1.27-.34,1.88-.23.61-.63,1.29-1.19,2.04-.57.75-1.35,1.66-2.35,2.73l-3.92,4.19v.14h8.11v1.88h-11.01Z"
         id="path124" />
      <g
         id="g127">
        <line
           class="cls-13"
           x1="799.7"
           y1="542.68"
           x2="798.28"
           y2="542.8"
           id="line125" />
        <line
           class="cls-2"
           x1="795.35"
           y1="543.05"
           x2="767.54"
           y2="545.45"
           id="line126" />
        <line
           class="cls-13"
           x1="766.07"
           y1="545.57"
           x2="764.66"
           y2="545.7"
           id="line127" />
      </g>
    </g>
    <g
       id="_1"
       serif:id="1">
      <polygon
         class="cls-18"
         points="678.02 508.86 1114.94 460.28 1131.67 477.53 1069.47 484.42 1153.48 571.03 1095.31 577.48 1010.98 490.55 694.31 525.66 678.02 508.86"
         id="polygon127" />
      <path
         class="cls-16"
         d="M898.59,523.54v17.46h-2.11v-15.24h-.1l-4.26,2.83v-2.15l4.36-2.9h2.11Z"
         id="path127" />
      <g
         id="g130">
        <line
           class="cls-13"
           x1="890.68"
           y1="518.36"
           x2="889.71"
           y2="517.32"
           id="line128" />
        <line
           class="cls-4"
           x1="887.68"
           y1="515.15"
           x2="872.42"
           y2="498.88"
           id="line129" />
        <line
           class="cls-13"
           x1="871.41"
           y1="497.79"
           x2="870.44"
           y2="496.76"
           id="line130" />
      </g>
    </g>
    <g
       id="Mappa_Outline">
      <polyline
         class="cls-12"
         points="670.98 509.5 619.35 456.27 958.48 418.67 840.24 296.77 945.07 285.15 1166.17 513.09 1103.97 519.99 1153.48 571.03 1095.31 577.48 1010.98 490.55 756.53 518.76 815.08 579.12 776.18 583.44 761.48 568.29 731.11 571.65 694.49 533.9 725.13 530.5 717.89 523.04 343.37 564.56 101.93 315.65 206.45 304.06 379.85 482.82 605.42 457.81 657.05 511.04"
         id="polyline130" />
      <line
         class="cls-12"
         x1="310.36"
         y1="490.51"
         x2="379.84"
         y2="482.81"
         id="line131" />
      <line
         class="cls-12"
         x1="401.42"
         y1="505.06"
         x2="379.84"
         y2="482.81"
         id="line132" />
      <line
         class="cls-12"
         x1="278.83"
         y1="498.03"
         x2="313.88"
         y2="494.14"
         id="line133" />
      <line
         class="cls-12"
         x1="282.35"
         y1="501.65"
         x2="317.4"
         y2="497.77"
         id="line134" />
      <line
         class="cls-12"
         x1="285.61"
         y1="505.31"
         x2="320.66"
         y2="501.43"
         id="line135" />
      <line
         class="cls-12"
         x1="680.36"
         y1="527.06"
         x2="664.07"
         y2="510.27"
         id="line136" />
      <line
         class="cls-12"
         x1="687.27"
         y1="526.3"
         x2="670.98"
         y2="509.5"
         id="line137" />
      <line
         class="cls-12"
         x1="694.31"
         y1="525.66"
         x2="678.02"
         y2="508.86"
         id="line138" />
      <line
         class="cls-12"
         x1="1092.16"
         y1="462.8"
         x2="1114.94"
         y2="460.28"
         id="line139" />
      <polyline
         class="cls-12"
         points="409.92 513.82 431.48 536.05 1075.46 464.65"
         id="polyline139" />
      <line
         class="cls-12"
         x1="783.77"
         y1="472.37"
         x2="805.34"
         y2="494.6"
         id="line140" />
      <line
         class="cls-12"
         x1="504.83"
         y1="480.56"
         x2="536.15"
         y2="512.85"
         id="line141" />
      <line
         class="cls-12"
         x1="149.85"
         y1="344.64"
         x2="218.63"
         y2="337.02"
         id="line142" />
      <line
         class="cls-12"
         x1="170.04"
         y1="365.46"
         x2="238.82"
         y2="357.84"
         id="line143" />
      <line
         class="cls-12"
         x1="199.46"
         y1="395.78"
         x2="268.23"
         y2="388.16"
         id="line144" />
      <line
         class="cls-12"
         x1="219.65"
         y1="416.6"
         x2="288.42"
         y2="408.98"
         id="line145" />
      <line
         class="cls-12"
         x1="268.9"
         y1="467.38"
         x2="337.68"
         y2="459.76"
         id="line146" />
      <line
         class="cls-12"
         x1="248.71"
         y1="446.56"
         x2="317.49"
         y2="438.94"
         id="line147" />
      <line
         class="cls-12"
         x1="753.71"
         y1="441.37"
         x2="775.27"
         y2="463.61"
         id="line148" />
      <polyline
         class="cls-12"
         points="890.68 426.19 927.86 464.52 941.9 478.98"
         id="polyline148" />
      <line
         class="cls-12"
         x1="990.26"
         y1="415.15"
         x2="1063.48"
         y2="407.03"
         id="line149" />
      <line
         class="cls-12"
         x1="958.48"
         y1="418.67"
         x2="973.57"
         y2="417"
         id="line150" />
      <line
         class="cls-12"
         x1="995.8"
         y1="403.63"
         x2="1005.35"
         y2="413.47"
         id="line151" />
      <line
         class="cls-12"
         x1="964.3"
         y1="371.15"
         x2="987.3"
         y2="394.87"
         id="line152" />
      <line
         class="cls-12"
         x1="932.47"
         y1="338.34"
         x2="955.8"
         y2="362.39"
         id="line153" />
      <line
         class="cls-12"
         x1="904.85"
         y1="309.87"
         x2="923.97"
         y2="329.58"
         id="line154" />
      <line
         class="cls-12"
         x1="887.11"
         y1="291.58"
         x2="896.36"
         y2="301.11"
         id="line155" />
      <line
         class="cls-12"
         x1="1035.72"
         y1="378.6"
         x2="977.76"
         y2="385.03"
         id="line156" />
      <line
         class="cls-12"
         x1="1000.42"
         y1="342.08"
         x2="942.34"
         y2="348.51"
         id="line157" />
      <line
         class="cls-12"
         x1="972.06"
         y1="312.97"
         x2="914.1"
         y2="319.4"
         id="line158" />
      <line
         class="cls-12"
         x1="1108.89"
         y1="480.05"
         x2="1131.67"
         y2="477.53"
         id="line159" />
      <polyline
         class="cls-12"
         points="1103.97 519.99 1069.47 484.42 1092.2 481.91"
         id="polyline159" />
      <line
         class="cls-12"
         x1="717.89"
         y1="523.04"
         x2="756.53"
         y2="518.76"
         id="line160" />
      <line
         class="cls-12"
         x1="747.69"
         y1="553.76"
         x2="761.75"
         y2="568.26"
         id="line161" />
      <line
         class="cls-12"
         x1="725.13"
         y1="530.5"
         x2="739.19"
         y2="545"
         id="line162" />
      <polygon
         class="cls-12"
         points="829.9 233.1 783.72 238.22 767.68 258.99 791.2 283.23 840.48 296.75 886.67 291.63 902.7 270.86 879.19 246.62 829.9 233.1"
         id="polygon162" />
      <line
         class="cls-12"
         x1="224.62"
         y1="382.47"
         x2="184.24"
         y2="340.83"
         id="line163" />
      <line
         class="cls-12"
         x1="274.23"
         y1="433.61"
         x2="233.84"
         y2="391.97"
         id="line164" />
      <line
         class="cls-12"
         x1="303.29"
         y1="463.57"
         x2="283.1"
         y2="442.75"
         id="line165" />
      <line
         class="cls-12"
         x1="931.32"
         y1="440.11"
         x2="910.26"
         y2="432.53"
         id="line166" />
      <line
         class="cls-12"
         x1="1000.6"
         y1="465.01"
         x2="979.49"
         y2="457.43"
         id="line167" />
      <line
         class="cls-12"
         x1="933.26"
         y1="438.64"
         x2="914.22"
         y2="429.89"
         id="line168" />
      <line
         class="cls-12"
         x1="996.18"
         y1="467.57"
         x2="976.93"
         y2="458.72"
         id="line169" />
      <line
         class="cls-12"
         x1="935.98"
         y1="437.51"
         x2="919.17"
         y2="427.66"
         id="line170" />
      <line
         class="cls-12"
         x1="990.75"
         y1="469.62"
         x2="974.14"
         y2="459.88"
         id="line171" />
      <line
         class="cls-12"
         x1="939.05"
         y1="436.57"
         x2="925.1"
         y2="425.97"
         id="line172" />
      <line
         class="cls-12"
         x1="984.62"
         y1="471.21"
         x2="970.65"
         y2="460.59"
         id="line173" />
      <line
         class="cls-12"
         x1="942.57"
         y1="435.93"
         x2="931.81"
         y2="424.84"
         id="line174" />
      <line
         class="cls-12"
         x1="977.81"
         y1="472.26"
         x2="967.03"
         y2="461.14"
         id="line175" />
      <line
         class="cls-12"
         x1="946.4"
         y1="435.54"
         x2="939.1"
         y2="424.25"
         id="line176" />
      <line
         class="cls-12"
         x1="970.36"
         y1="472.59"
         x2="962.99"
         y2="461.2"
         id="line177" />
      <line
         class="cls-12"
         x1="950.53"
         y1="435.51"
         x2="946.84"
         y2="424.26"
         id="line178" />
      <line
         class="cls-12"
         x1="962.65"
         y1="472.42"
         x2="958.92"
         y2="461.07"
         id="line179" />
      <line
         class="cls-12"
         x1="954.82"
         y1="435.8"
         x2="954.83"
         y2="424.93"
         id="line180" />
      <line
         class="cls-12"
         x1="954.8"
         y1="471.57"
         x2="954.81"
         y2="460.71"
         id="line181" />
      <line
         class="cls-12"
         x1="959.17"
         y1="436.42"
         x2="962.88"
         y2="426.09"
         id="line182" />
      <line
         class="cls-12"
         x1="947.01"
         y1="470.29"
         x2="950.7"
         y2="460.01"
         id="line183" />
      <line
         class="cls-12"
         x1="939.49"
         y1="468.4"
         x2="946.77"
         y2="458.97"
         id="line184" />
      <line
         class="cls-12"
         x1="907.5"
         y1="435.57"
         x2="930.09"
         y2="441.77"
         id="line185" />
      <g
         id="g186">
        <path
           class="cls-12"
           d="M978.99,472.14c12.28-1.36,20.91-5.17,25.01-10.25l-22.6-6.2c-2.21,2.64-6.74,4.63-13.18,5.34-7.04.78-14.9-.11-21.75-2.15l-7.35,9.52c12.63,3.63,26.99,5.17,39.87,3.74Z"
           id="path185" />
        <path
           class="cls-12"
           d="M927.69,464.34c14.77,6.41,34.32,9.68,51.3,7.8,12.58-1.39,21.34-5.36,25.31-10.62l-22.59-6.2c-2.09,2.83-6.76,4.96-13.5,5.71-7.31.81-15.51-.18-22.54-2.39,1.48-2.61.85-5.68-2.2-8.83-3.03-3.13-7.96-5.74-13.69-7.55,1.78-3.19,6.67-5.63,13.98-6.44,6.53-.72,13.77-.01,20.25,1.72l7.35-9.51c-12.26-3.32-26-4.69-38.37-3.32-16.92,1.88-26.94,8.39-27.67,16.48"
           id="path186" />
      </g>
    </g>
  </g>
</svg>
